<svg width="28" height="28" viewBox="0 0 28 28" fill="none" xmlns="http://www.w3.org/2000/svg">
<path fill-rule="evenodd" clip-rule="evenodd" d="M4.51613 5.41935C3.01962 5.41935 1.80645 6.63252 1.80645 8.12903V23.4839C1.80645 24.9804 3.01962 26.1935 4.51613 26.1935H19.871C21.3675 26.1935 22.5806 24.9804 22.5806 23.4839V15.8065C22.5806 15.3076 22.985 14.9032 23.4839 14.9032C23.9827 14.9032 24.3871 15.3076 24.3871 15.8065V23.4839C24.3871 25.9781 22.3652 28 19.871 28H4.51613C2.02194 28 0 25.9781 0 23.4839V8.12903C0 5.63484 2.02194 3.6129 4.51613 3.6129H12.1935C12.6924 3.6129 13.0968 4.01729 13.0968 4.51613C13.0968 5.01497 12.6924 5.41935 12.1935 5.41935H4.51613Z" fill="white"/>
<path fill-rule="evenodd" clip-rule="evenodd" d="M16.2581 0.903226C16.2581 0.404388 16.6625 0 17.1613 0H28V10.8387C28 11.3375 27.5956 11.7419 27.0968 11.7419C26.5979 11.7419 26.1935 11.3375 26.1935 10.8387V3.08381L12.3806 16.8967C12.0279 17.2495 11.456 17.2495 11.1033 16.8967C10.7505 16.544 10.7505 15.9721 11.1033 15.6194L24.9162 1.80645H17.1613C16.6625 1.80645 16.2581 1.40206 16.2581 0.903226Z" fill="white"/>
</svg>
