<svg width="468" height="750" viewBox="0 0 468 750" fill="none" xmlns="http://www.w3.org/2000/svg">
<path opacity="0.5" d="M-85 13L-73 1M-58 13L-46 1M-31 13L-19 1M-4 13L8 1M23 13L35 1M50 13L62 1M77 13L89 1M104 13L116 1M131 13L143 1M158 13L170 1M185 13L197 1M212 13L224 1M-85 45L-73 33M-58 45L-46 33M-31 45L-19 33M-4 45L8 33M23 45L35 33M50 45L62 33M77 45L89 33M104 45L116 33M131 45L143 33M158 45L170 33M185 45L197 33M212 45L224 33M239 45L251 33M266 45L278 33M293 45L305 33M320 45L332 33M347 45L359 33M-85 77L-73 65M-58 77L-46 65M-31 77L-19 65M-4 77L8 65M23 77L35 65M50 77L62 65M77 77L89 65M104 77L116 65M131 77L143 65M158 77L170 65M185 77L197 65M212 77L224 65M239 77L251 65M266 77L278 65M293 77L305 65M320 77L332 65M347 77L359 65M374 77L386 65M401 77L413 65M428 77L440 65M455 77L467 65M-85 109L-73 97M-58 109L-46 97M-31 109L-19 97M-4 109L8 97M23 109L35 97M50 109L62 97M77 109L89 97M104 109L116 97M131 109L143 97M158 109L170 97M185 109L197 97M212 109L224 97M239 109L251 97M266 109L278 97M293 109L305 97M320 109L332 97M347 109L359 97M374 109L386 97M401 109L413 97M428 109L440 97M455 109L467 97M-85 141L-73 129M-58 141L-46 129M-31 141L-19 129M-4 141L8 129M23 141L35 129M50 141L62 129M77 141L89 129M104 141L116 129M131 141L143 129M158 141L170 129M185 141L197 129M212 141L224 129M239 141L251 129M266 141L278 129M293 141L305 129M320 141L332 129M347 141L359 129M374 141L386 129M401 141L413 129M428 141L440 129M455 141L467 129M-85 173L-73 161M-58 173L-46 161M-31 173L-19 161M-4 173L8 161M23 173L35 161M50 173L62 161M77 173L89 161M104 173L116 161M131 173L143 161M158 173L170 161M185 173L197 161M212 173L224 161M239 173L251 161M266 173L278 161M293 173L305 161M320 173L332 161M347 173L359 161M374 173L386 161M401 173L413 161M428 173L440 161M455 173L467 161M-85 205L-73 193M-58 205L-46 193M-31 205L-19 193M-4 205L8 193M23 205L35 193M50 205L62 193M77 205L89 193M104 205L116 193M131 205L143 193M158 205L170 193M185 205L197 193M212 205L224 193M239 205L251 193M266 205L278 193M293 205L305 193M320 205L332 193M347 205L359 193M-85 237L-73 225M-58 237L-46 225M-31 237L-19 225M-4 237L8 225M23 237L35 225M50 237L62 225M77 237L89 225M104 237L116 225M131 237L143 225M158 237L170 225M185 237L197 225M212 237L224 225M239 237L251 225M266 237L278 225M293 237L305 225M320 237L332 225M347 237L359 225M-85 269L-73 257M-58 269L-46 257M-31 269L-19 257M-4 269L8 257M23 269L35 257M50 269L62 257M77 269L89 257M104 269L116 257M131 269L143 257M158 269L170 257M185 269L197 257M212 269L224 257M239 269L251 257M266 269L278 257M293 269L305 257M320 269L332 257M-85 301L-73 289M-58 301L-46 289M-31 301L-19 289M-4 301L8 289M23 301L35 289M50 301L62 289M77 301L89 289M104 301L116 289M131 301L143 289M158 301L170 289M185 301L197 289M212 301L224 289M239 301L251 289M266 301L278 289M293 301L305 289M320 301L332 289M-85 333L-73 321M-58 333L-46 321M-31 333L-19 321M-4 333L8 321M23 333L35 321M50 333L62 321M77 333L89 321M104 333L116 321M131 333L143 321M158 333L170 321M185 333L197 321M212 333L224 321M239 333L251 321M266 333L278 321M293 333L305 321M320 333L332 321M347 333L359 321M374 333L386 321M-85 365L-73 353M-58 365L-46 353M-31 365L-19 353M-4 365L8 353M23 365L35 353M50 365L62 353M77 365L89 353M104 365L116 353M131 365L143 353M158 365L170 353M185 365L197 353M212 365L224 353M239 365L251 353M266 365L278 353M293 365L305 353M320 365L332 353M347 365L359 353M374 365L386 353M-85 397L-73 385M-58 397L-46 385M-31 397L-19 385M-4 397L8 385M23 397L35 385M50 397L62 385M77 397L89 385M104 397L116 385M131 397L143 385M158 397L170 385M185 397L197 385M212 397L224 385M239 397L251 385M266 397L278 385M293 397L305 385M320 397L332 385M347 397L359 385M374 397L386 385M-85 429L-73 417M-58 429L-46 417M-31 429L-19 417M-4 429L8 417M23 429L35 417M50 429L62 417M77 429L89 417M104 429L116 417M131 429L143 417M158 429L170 417M185 429L197 417M212 429L224 417M239 429L251 417M266 429L278 417M293 429L305 417M320 429L332 417M347 429L359 417M374 429L386 417M-85 461L-73 449M-58 461L-46 449M-31 461L-19 449M-4 461L8 449M23 461L35 449M50 461L62 449M77 461L89 449M104 461L116 449M131 461L143 449M158 461L170 449M185 461L197 449M212 461L224 449M239 461L251 449M266 461L278 449M293 461L305 449M320 461L332 449M347 461L359 449M374 461L386 449M401 461L413 449M428 461L440 449M455 461L467 449M-85 493L-73 481M-58 493L-46 481M-31 493L-19 481M-4 493L8 481M23 493L35 481M50 493L62 481M77 493L89 481M104 493L116 481M131 493L143 481M158 493L170 481M185 493L197 481M212 493L224 481M239 493L251 481M266 493L278 481M293 493L305 481M320 493L332 481M347 493L359 481M374 493L386 481M401 493L413 481M428 493L440 481M455 493L467 481M-85 525L-73 513M-58 525L-46 513M-31 525L-19 513M-4 525L8 513M23 525L35 513M50 525L62 513M77 525L89 513M-85 557L-73 545M-58 557L-46 545M-31 557L-19 545M-4 557L8 545M23 557L35 545M50 557L62 545M77 557L89 545M104 557L116 545M131 557L143 545M158 557L170 545M185 557L197 545M212 557L224 545M239 557L251 545M266 557L278 545M293 557L305 545M320 557L332 545M347 557L359 545M374 557L386 545M401 557L413 545M428 557L440 545M455 557L467 545M-85 589L-73 577M-58 589L-46 577M-31 589L-19 577M-4 589L8 577M23 589L35 577M50 589L62 577M77 589L89 577M104 589L116 577M131 589L143 577M158 589L170 577M185 589L197 577M212 589L224 577M-85 621L-73 609M-58 621L-46 609M-31 621L-19 609M-4 621L8 609M23 621L35 609M50 621L62 609M77 621L89 609M104 621L116 609M131 621L143 609M158 621L170 609M185 621L197 609M212 621L224 609M-85 653L-73 641M-58 653L-46 641M-31 653L-19 641M-4 653L8 641M23 653L35 641M50 653L62 641M77 653L89 641M104 653L116 641M131 653L143 641M158 653L170 641M185 653L197 641M212 653L224 641M-85 685L-73 673M-58 685L-46 673M-31 685L-19 673M-4 685L8 673M23 685L35 673M50 685L62 673M77 685L89 673M104 685L116 673M-85 717L-73 705M-58 717L-46 705M-31 717L-19 705M-4 717L8 705M23 717L35 705M50 717L62 705M77 717L89 705M-85 749L-73 737M-58 749L-46 737M-31 749L-19 737M-4 749L8 737M23 749L35 737M50 749L62 737" stroke="#A7BEE8" stroke-width="2"/>
</svg>
