<svg width="467" height="750" viewBox="0 0 467 750" fill="none" xmlns="http://www.w3.org/2000/svg">
<path opacity="0.25" d="M553 13L541 1M526 13L514 1M499 13L487 1M472 13L460 1M445 13L433 1M418 13L406 1M391 13L379 1M364 13L352 1M337 13L325 1M310 13L298 1M283 13L271 1M256 13L244 1M229 13L217 1M202 13L190 1M175 13L163 1M148 13L136 1M121 13L109 1M553 45L541 33M526 45L514 33M499 45L487 33M472 45L460 33M445 45L433 33M418 45L406 33M391 45L379 33M364 45L352 33M337 45L325 33M310 45L298 33M283 45L271 33M256 45L244 33M229 45L217 33M202 45L190 33M175 45L163 33M148 45L136 33M121 45L109 33M94 45L82 33M67 45L55 33M40 45L28 33M553 77L541 65M526 77L514 65M499 77L487 65M472 77L460 65M445 77L433 65M418 77L406 65M391 77L379 65M364 77L352 65M337 77L325 65M310 77L298 65M283 77L271 65M256 77L244 65M229 77L217 65M202 77L190 65M175 77L163 65M148 77L136 65M121 77L109 65M94 77L82 65M67 77L55 65M40 77L28 65M13 77L1 65M553 109L541 97M526 109L514 97M499 109L487 97M472 109L460 97M445 109L433 97M418 109L406 97M391 109L379 97M364 109L352 97M337 109L325 97M310 109L298 97M283 109L271 97M256 109L244 97M229 109L217 97M202 109L190 97M175 109L163 97M148 109L136 97M121 109L109 97M94 109L82 97M67 109L55 97M40 109L28 97M13 109L1 97M553 141L541 129M526 141L514 129M499 141L487 129M472 141L460 129M445 141L433 129M418 141L406 129M391 141L379 129M364 141L352 129M337 141L325 129M310 141L298 129M283 141L271 129M256 141L244 129M229 141L217 129M202 141L190 129M175 141L163 129M148 141L136 129M121 141L109 129M94 141L82 129M67 141L55 129M40 141L28 129M13 141L1 129M553 173L541 161M526 173L514 161M499 173L487 161M472 173L460 161M445 173L433 161M418 173L406 161M391 173L379 161M364 173L352 161M337 173L325 161M310 173L298 161M283 173L271 161M256 173L244 161M229 173L217 161M202 173L190 161M175 173L163 161M148 173L136 161M121 173L109 161M94 173L82 161M67 173L55 161M40 173L28 161M13 173L1 161M553 205L541 193M526 205L514 193M499 205L487 193M472 205L460 193M445 205L433 193M418 205L406 193M391 205L379 193M364 205L352 193M337 205L325 193M310 205L298 193M283 205L271 193M256 205L244 193M229 205L217 193M202 205L190 193M175 205L163 193M148 205L136 193M121 205L109 193M553 237L541 225M526 237L514 225M499 237L487 225M472 237L460 225M445 237L433 225M418 237L406 225M391 237L379 225M364 237L352 225M337 237L325 225M310 237L298 225M283 237L271 225M256 237L244 225M229 237L217 225M202 237L190 225M175 237L163 225M148 237L136 225M121 237L109 225M553 269L541 257M526 269L514 257M499 269L487 257M472 269L460 257M445 269L433 257M418 269L406 257M391 269L379 257M364 269L352 257M337 269L325 257M310 269L298 257M283 269L271 257M256 269L244 257M229 269L217 257M202 269L190 257M175 269L163 257M148 269L136 257M553 301L541 289M526 301L514 289M499 301L487 289M472 301L460 289M445 301L433 289M418 301L406 289M391 301L379 289M364 301L352 289M337 301L325 289M310 301L298 289M283 301L271 289M256 301L244 289M229 301L217 289M202 301L190 289M175 301L163 289M148 301L136 289M553 333L541 321M526 333L514 321M499 333L487 321M472 333L460 321M445 333L433 321M418 333L406 321M391 333L379 321M364 333L352 321M337 333L325 321M310 333L298 321M283 333L271 321M256 333L244 321M229 333L217 321M202 333L190 321M175 333L163 321M148 333L136 321M121 333L109 321M94 333L82 321M553 365L541 353M526 365L514 353M499 365L487 353M472 365L460 353M445 365L433 353M418 365L406 353M391 365L379 353M364 365L352 353M337 365L325 353M310 365L298 353M283 365L271 353M256 365L244 353M229 365L217 353M202 365L190 353M175 365L163 353M148 365L136 353M121 365L109 353M94 365L82 353M553 397L541 385M526 397L514 385M499 397L487 385M472 397L460 385M445 397L433 385M418 397L406 385M391 397L379 385M364 397L352 385M337 397L325 385M310 397L298 385M283 397L271 385M256 397L244 385M229 397L217 385M202 397L190 385M175 397L163 385M148 397L136 385M121 397L109 385M94 397L82 385M553 429L541 417M526 429L514 417M499 429L487 417M472 429L460 417M445 429L433 417M418 429L406 417M391 429L379 417M364 429L352 417M337 429L325 417M310 429L298 417M283 429L271 417M256 429L244 417M229 429L217 417M202 429L190 417M175 429L163 417M148 429L136 417M121 429L109 417M94 429L82 417M553 461L541 449M526 461L514 449M499 461L487 449M472 461L460 449M445 461L433 449M418 461L406 449M391 461L379 449M364 461L352 449M337 461L325 449M310 461L298 449M283 461L271 449M256 461L244 449M229 461L217 449M202 461L190 449M175 461L163 449M148 461L136 449M121 461L109 449M94 461L82 449M67 461L55 449M40 461L28 449M13 461L1 449M553 493L541 481M526 493L514 481M499 493L487 481M472 493L460 481M445 493L433 481M418 493L406 481M391 493L379 481M364 493L352 481M337 493L325 481M310 493L298 481M283 493L271 481M256 493L244 481M229 493L217 481M202 493L190 481M175 493L163 481M148 493L136 481M121 493L109 481M94 493L82 481M67 493L55 481M40 493L28 481M13 493L1 481M553 525L541 513M526 525L514 513M499 525L487 513M472 525L460 513M445 525L433 513M418 525L406 513M391 525L379 513M553 557L541 545M526 557L514 545M499 557L487 545M472 557L460 545M445 557L433 545M418 557L406 545M391 557L379 545M364 557L352 545M337 557L325 545M310 557L298 545M283 557L271 545M256 557L244 545M229 557L217 545M202 557L190 545M175 557L163 545M148 557L136 545M121 557L109 545M94 557L82 545M67 557L55 545M40 557L28 545M13 557L1 545M553 589L541 577M526 589L514 577M499 589L487 577M472 589L460 577M445 589L433 577M418 589L406 577M391 589L379 577M364 589L352 577M337 589L325 577M310 589L298 577M283 589L271 577M256 589L244 577M553 621L541 609M526 621L514 609M499 621L487 609M472 621L460 609M445 621L433 609M418 621L406 609M391 621L379 609M364 621L352 609M337 621L325 609M310 621L298 609M283 621L271 609M256 621L244 609M553 653L541 641M526 653L514 641M499 653L487 641M472 653L460 641M445 653L433 641M418 653L406 641M391 653L379 641M364 653L352 641M337 653L325 641M310 653L298 641M283 653L271 641M256 653L244 641M553 685L541 673M526 685L514 673M499 685L487 673M472 685L460 673M445 685L433 673M418 685L406 673M391 685L379 673M364 685L352 673M553 717L541 705M526 717L514 705M499 717L487 705M472 717L460 705M445 717L433 705M418 717L406 705M391 717L379 705M553 749L541 737M526 749L514 737M499 749L487 737M472 749L460 737M445 749L433 737M418 749L406 737" stroke="#A7BEE8" stroke-width="2"/>
</svg>
