<svg width="440" height="919" viewBox="0 0 440 919" fill="none" xmlns="http://www.w3.org/2000/svg">
<g opacity="0.15">
<path fill-rule="evenodd" clip-rule="evenodd" d="M248.236 21.9632L251.835 23.6264C243.705 24.2296 240.782 31.9854 237.849 36.7026C240.813 36.9714 239.658 36.0407 242.574 37.2454C237.962 38.6294 236.36 39.5256 234.037 43.0984C231.958 46.2938 230.09 48.705 229.545 51.7659C232.592 52.2691 231.346 51.5298 234.075 51.4746C223.742 56.6141 226.042 59.8233 222.235 66.6655L228.749 67.2515C217.062 69.8695 220.231 75.102 216.169 79.135C216.357 80.3983 216.512 81.7271 216.634 83.1231C218.626 84.2865 220 84.5554 221.755 85.5516L235.064 92.5352L237.387 84.4019C239.346 71.5809 286.708 -48.3691 248.236 21.9632Z" fill="#A7BEE8"/>
<path fill-rule="evenodd" clip-rule="evenodd" d="M168.419 39.7256C171.194 45.5252 181.611 54.9354 184.361 59.3062C187.846 64.8455 187.648 72.2962 188.43 79.1557L167.026 92.1991C164.865 88.6056 162.771 85.7101 166.557 63.8631C163.713 56.359 164.311 48.2276 167.655 39.5946C167.768 39.305 168.276 39.4275 168.419 39.7256Z" fill="#A7BEE8"/>
<path fill-rule="evenodd" clip-rule="evenodd" d="M204.416 44.3636C209.241 45.1185 212.5 48.5603 214.434 54.2754C219.437 59.3959 221.6 65.1197 220.87 71.4621L202.751 70.2711C208.084 59.0943 209.926 49.4893 204.416 44.3636Z" fill="#A7BEE8"/>
<path fill-rule="evenodd" clip-rule="evenodd" d="M100.556 241.095C103.109 267.156 101.412 295.097 96.9446 324.062C96.8917 324.405 96.6167 325.6 95.6039 327.077C92.4813 331.628 90.4019 336.681 88.0964 342.284C78.7808 364.926 65.7717 396.545 -34.5838 440.195C-111.579 473.685 -133.005 511.553 -140.443 524.699C-141.78 527.061 -142.665 528.625 -143.339 529.222C-209.18 521.859 -246.747 582.843 -252.38 663.665C-252.408 664.073 -252.523 664.323 -252.751 664.616C-289.642 711.961 -288.392 741.506 -283.51 757.392C-282.728 750.388 -281.047 744.845 -277.492 742.354C-282.933 760.484 -283.864 793.759 -276.83 811.709L-275.68 793.773C-272.481 814.552 -260.346 827.69 -239.891 833.719C-264.016 781.39 -242.082 762.902 -206.047 732.528C-197.09 724.978 -187.262 716.694 -177.053 706.973C-147.435 675.517 -151.259 647.461 -154.758 621.79C-157.375 602.596 -159.81 584.735 -147.948 567.784C-138.853 615.798 -119.918 650.027 -93.8115 674.201C-91.3908 696.854 -92.349 725.609 -93.9263 730.7C-96.0031 737.4 -98.9781 744.056 -102.024 750.868C-102.844 752.702 -103.669 754.547 -104.482 756.408C-86.5711 802.758 -66.6996 846.783 -40.1503 882.886C-35.8878 880.12 -31.6007 881.692 -27.3381 887.355C-30.401 900.399 -27.8407 908.737 -22.2744 914.557C-4.49014 921.808 11.9916 920.129 22.3834 909.919C14.2411 891.964 2.54742 879.82 -10.5226 871.496L-56.7648 790.816C-59.9564 778.067 -60.4486 763.934 -59.4359 750.345C-14.2329 674.643 -10.1639 635.628 -7.50705 610.152C-5.89929 594.736 -4.80853 584.278 4.56747 573.649C7.86673 570.031 9.74048 569.972 10.2662 573.276C1.06802 585.34 -0.91864 602.047 -3.14667 620.786C-4.72055 634.022 -6.41501 648.271 -10.856 662.614C11.2719 686.299 0.333252 708.343 -25.5367 736.093C-36.0493 743.672 -13.9031 771.215 12.5407 804.104C23.6465 817.915 35.5128 832.674 46.0327 847.288C46.5109 847.953 48.4477 848.255 49.2893 847.972C60.1115 844.321 62.2637 853.197 59.8484 869.726C79.8591 885.951 97.0103 887.366 110.858 871.684C104.523 855.631 90.9375 843.02 72.5287 832.703C54.3087 814.069 38.9147 793.902 26.2417 772.259C16.2258 752.185 26.4819 730.778 47.8988 708.9C68.1795 688.263 83.5151 661.19 96.3981 630.919C106.716 608.562 103.893 602.848 100.965 596.919C98.9554 592.852 96.8963 588.683 99.0001 578.967C99.2691 577.725 99.3426 577.686 100.266 577.197L100.412 577.12C163.249 543.722 224.583 503.964 279.48 454.765C280.055 454.25 279.857 453.125 278.714 452.825C256.939 450.443 236.399 449.136 207.262 461.558C203.961 462.964 201.088 461.663 200.074 460.827C181.004 445.14 164.985 430.021 154.756 415.308C169.622 429.799 184.488 444.29 200.603 453.902L200.773 454.023C204.509 456.682 205.08 457.089 211.298 455.612C239.537 448.902 264.605 443.932 270.342 444.35C280.79 445.112 288.811 445.855 295.689 446.492C311.744 447.979 321.571 448.889 341.488 448.111C345.495 453.13 348.556 456.17 352.562 456.492C346.497 469.305 346.024 483.76 346.617 498.74C343.235 507.914 339.371 514.126 330.069 513.902C329.051 513.878 328.199 514.41 327.712 515.158C323.062 522.297 315.371 526.201 307.518 529.01C302.538 532.14 298.024 535.856 295.639 542.243C292.126 556.458 292.142 564.79 294.915 568.53C310.905 566.741 328.893 555.193 347.111 542.515C352.526 539.62 356.807 536.519 357.224 532.719C361.109 529.339 370.426 528.14 379.064 528.645C379.102 528.647 379.139 528.652 379.177 528.656C379.394 528.682 379.621 528.71 379.939 528.334C386.866 520.175 393.704 513.55 406.508 508.923C412.736 507.63 417.249 504.531 418.671 498.182L418.77 481.997C418.771 481.638 418.766 481.667 418.924 481.345L420.2 478.729C430.835 456.95 441.471 435.171 439.832 411.275C439.112 405.205 435.095 401.282 430.029 398.042L429.996 398.019C429.869 397.936 429.805 397.894 429.506 397.956C396.459 404.127 377.422 395.177 365.183 384.55C364.687 384.121 364.36 384.088 363.856 384.04C356.466 383.323 356.205 382.334 355.163 378.396L355.026 377.879C354.077 356.957 350.76 341.234 343.893 333.316C258.441 274.555 229.594 222.35 219.146 193.086C219.005 192.69 218.911 192.392 218.866 192.175L219.127 192.219L219.143 191.734L218.928 191.701C219.087 191.616 219.449 191.775 220.014 192.023L220.091 192.057C230.85 196.762 242.752 199.624 255.085 202.589C259.754 203.711 264.485 204.849 269.24 206.107C270.146 207.575 277.908 212.709 279.806 212.711L297.174 212.725C300.743 212.728 303.635 208.476 306.029 204.958L306.42 204.384L306.602 204.118C314.632 197.298 314.207 190.23 312.303 175.627C312.552 174.422 312.79 173.354 313.001 172.405C314.092 167.512 314.484 165.753 312.031 164.557C294.78 152.59 277.841 137.66 262.773 123.134C261.166 121.585 258.562 118.248 258.197 116.28C255.857 103.679 247.235 98.3848 233.862 91.3512L220.909 70.0522L203.052 69.9264C198.147 68.9354 193.183 68.9095 188.124 70.3263L167.014 75.5674C152.367 78.5146 139.338 83.6592 133.352 98.3572C141.496 96.7009 144.073 102.035 144.011 113.134C136.479 95.7427 114.099 100.62 112 132.37C122.622 130.495 128.016 135.237 127.545 147.208C111.797 127.353 97.9665 149.636 100.022 181.431C113.161 183.963 114.962 194.346 116.754 204.675L116.86 205.286C102.134 176.919 91.9465 190.011 97.3276 231.406C106.82 230.639 111.764 235.204 113.168 243.922C105.881 236.466 101.486 235.118 100.556 241.095ZM218.928 191.701C172.814 184.515 164.989 168.541 163.803 141.948C164.679 183.501 171.418 184.577 208.592 190.509C211.787 191.019 215.206 191.565 218.866 192.175C218.809 191.899 218.829 191.753 218.928 191.701ZM409.08 423.453C398.858 426.884 386.633 427.479 372.346 425.214C372.154 425.184 371.995 425.155 371.867 425.132L371.836 425.126C371.678 425.097 371.571 425.078 371.511 425.079C371.482 425.08 371.457 425.096 371.457 425.096C371.429 425.147 371.63 425.319 372.025 425.719L386.345 440.228C390.813 448.057 381.491 472.212 372.181 496.335L371.086 499.173C374.606 495.578 378.535 493.449 383.165 493.828C406.667 465.184 411.476 443.061 409.08 423.453Z" fill="#A7BEE8"/>
</g>
</svg>
