<svg width="289" height="222" viewBox="0 0 289 222" fill="none" xmlns="http://www.w3.org/2000/svg">
<path opacity="0.25" d="M184.349 0H289V73.6355C289 103.284 286.269 126.614 280.807 143.626C275.593 160.637 265.661 176.069 251.013 189.921C236.613 203.53 218.364 214.223 196.267 222L175.784 179.35C196.639 172.545 211.536 163.067 220.474 150.916C229.661 138.765 234.378 122.604 234.626 102.433H184.349V0ZM8.56572 0H113.216V73.6355C113.216 103.284 110.61 126.614 105.396 143.626C100.182 160.637 90.2504 176.069 75.6018 189.921C61.2015 203.53 42.8286 214.223 20.4832 222L0 179.35C21.104 172.545 36.125 163.067 45.0631 150.916C54.0013 138.765 58.7186 122.604 59.2152 102.433H8.56572V0Z" fill="#A7BEE8"/>
</svg>
