<svg width="20" height="20" viewBox="0 0 20 20" fill="none" xmlns="http://www.w3.org/2000/svg">
<g clip-path="url(#clip0_2368_64902)">
<path d="M9.16602 1.66699C5.02602 1.66699 1.66602 5.02699 1.66602 9.16699C1.66602 13.307 5.02602 16.667 9.16602 16.667H12.916V15.167H9.16602C5.91102 15.167 3.16602 12.422 3.16602 9.16699C3.16602 5.91199 5.91102 3.16699 9.16602 3.16699C12.421 3.16699 15.166 5.91199 15.166 9.16699V10.2395C15.166 10.832 14.6335 11.417 14.041 11.417C13.4485 11.417 12.916 10.832 12.916 10.2395V9.16699C12.916 7.09699 11.236 5.41699 9.16602 5.41699C7.09602 5.41699 5.41602 7.09699 5.41602 9.16699C5.41602 11.237 7.09602 12.917 9.16602 12.917C10.201 12.917 11.146 12.497 11.821 11.8145C12.3085 12.482 13.1485 12.917 14.041 12.917C15.5185 12.917 16.666 11.717 16.666 10.2395V9.16699C16.666 5.02699 13.306 1.66699 9.16602 1.66699ZM9.16602 11.417C7.92102 11.417 6.91602 10.412 6.91602 9.16699C6.91602 7.92199 7.92102 6.91699 9.16602 6.91699C10.411 6.91699 11.416 7.92199 11.416 9.16699C11.416 10.412 10.411 11.417 9.16602 11.417Z" fill="#332E59"/>
</g>
<defs>
<clipPath id="clip0_2368_64902">
<rect width="20" height="20" fill="white"/>
</clipPath>
</defs>
</svg>
