<svg width="20" height="20" viewBox="0 0 20 20" fill="none" xmlns="http://www.w3.org/2000/svg">
<path fill-rule="evenodd" clip-rule="evenodd" d="M7.50781 3.25105V4.69136V5.20084V5.66736V6.20084H7.12695H6.74609V5.66736C6.74609 5.40308 6.65639 5.16125 6.50781 4.97488C6.32511 4.74571 6.0534 4.60042 5.75 4.60042H3.99219C3.44206 4.60042 2.99609 5.07811 2.99609 5.66736V6.20084H2.23438C2.10493 6.20084 2 6.31323 2 6.45188V16.1485C2 16.2872 2.10493 16.3996 2.23438 16.3996H6.50781H7.50781V17.3996V17.749C7.50781 17.8876 7.61275 18 7.74219 18H15.7695C15.899 18 16.0039 17.8876 16.0039 17.749V17.3996V16.3996H16.7656C16.8951 16.3996 17 16.2872 17 16.1485V6.45188C17 6.31323 16.8951 6.20084 16.7656 6.20084H16.0039V5.20084V3.25105C16.0039 3.1124 15.899 3 15.7695 3H7.74219C7.61275 3 7.50781 3.1124 7.50781 3.25105ZM6.50781 3.25105V3.75196C6.27788 3.65482 6.02316 3.60042 5.75 3.60042H3.99219C2.99254 3.60042 2.2398 4.32897 2.04535 5.21471C1.40745 5.31002 1 5.8813 1 6.45188V16.1485C1 16.7736 1.48904 17.3996 2.23438 17.3996H6.50781V17.749C6.50781 18.3741 6.99685 19 7.74219 19H15.7695C16.5149 19 17.0039 18.3741 17.0039 17.749V17.3773C17.6134 17.2607 18 16.7043 18 16.1485V6.45188C18 5.89613 17.6134 5.33971 17.0039 5.22309V3.25105C17.0039 2.62594 16.5149 2 15.7695 2H7.74219C6.99685 2 6.50781 2.62594 6.50781 3.25105ZM15.5059 3.53347H8.00586V7.80126H15.5059V3.53347ZM11.5215 4.06695H9.5V4.6318H11.5215V4.06695ZM8.47461 5.13389H11.0234V5.69874H8.47461V5.13389ZM12.5176 5.13389H11.4922V5.69874H12.5176V5.13389ZM12.9863 5.13389H15.0078V5.69874H12.9863V5.13389ZM15.0371 4.06695H12.9863V4.6318H15.0371V4.06695ZM11.9902 4.06695H12.5176V4.6318H11.9902V4.06695ZM9.00195 4.06695H8.47461V4.6318H9.00195V4.06695ZM16.502 6.73431H16.0039V8.08368C16.0039 8.22233 15.899 8.33473 15.7695 8.33473H7.74219C7.61275 8.33473 7.50781 8.22233 7.50781 8.08368V6.73431H6.74609V13.1987C6.74609 13.788 6.30013 14.2657 5.75 14.2657H3.99219C3.44206 14.2657 2.99609 13.788 2.99609 13.1987V6.73431H2.49805V15.8661H16.502V6.73431ZM7.97656 9.40167C7.84712 9.40167 7.74219 9.51407 7.74219 9.65272V10.751C7.74219 10.8897 7.84712 11.0021 7.97656 11.0021H9.5C9.62944 11.0021 9.73438 10.8897 9.73438 10.751V9.65272C9.73438 9.51407 9.62944 9.40167 9.5 9.40167H7.97656ZM10.4961 9.40167C10.3667 9.40167 10.2617 9.51407 10.2617 9.65272V10.751C10.2617 10.8897 10.3667 11.0021 10.4961 11.0021H12.0195C12.149 11.0021 12.2539 10.8897 12.2539 10.751V9.65272C12.2539 9.51407 12.149 9.40167 12.0195 9.40167H10.4961ZM12.7812 9.65272C12.7812 9.51407 12.8862 9.40167 13.0156 9.40167H14.5391C14.6685 9.40167 14.7734 9.51407 14.7734 9.65272V10.751C14.7734 10.8897 14.6685 11.0021 14.5391 11.0021H13.0156C12.8862 11.0021 12.7812 10.8897 12.7812 10.751V9.65272ZM7.97656 11.5669C7.84712 11.5669 7.74219 11.6793 7.74219 11.818V12.9163C7.74219 13.055 7.84712 13.1674 7.97656 13.1674H9.5C9.62944 13.1674 9.73438 13.055 9.73438 12.9163V11.818C9.73438 11.6793 9.62944 11.5669 9.5 11.5669H7.97656ZM10.2617 11.818C10.2617 11.6793 10.3667 11.5669 10.4961 11.5669H12.0195C12.149 11.5669 12.2539 11.6793 12.2539 11.818V12.9163C12.2539 13.055 12.149 13.1674 12.0195 13.1674H10.4961C10.3667 13.1674 10.2617 13.055 10.2617 12.9163V11.818ZM13.0156 11.5669C12.8862 11.5669 12.7812 11.6793 12.7812 11.818V12.9163C12.7812 13.055 12.8862 13.1674 13.0156 13.1674H14.5391C14.6685 13.1674 14.7734 13.055 14.7734 12.9163V11.818C14.7734 11.6793 14.6685 11.5669 14.5391 11.5669H13.0156ZM7.74219 13.9833C7.74219 13.8446 7.84712 13.7322 7.97656 13.7322H9.5C9.62944 13.7322 9.73438 13.8446 9.73438 13.9833V15.0816C9.73438 15.2202 9.62944 15.3326 9.5 15.3326H7.97656C7.84712 15.3326 7.74219 15.2202 7.74219 15.0816V13.9833ZM10.4961 13.7322C10.3667 13.7322 10.2617 13.8446 10.2617 13.9833V15.0816C10.2617 15.2202 10.3667 15.3326 10.4961 15.3326H12.0195C12.149 15.3326 12.2539 15.2202 12.2539 15.0816V13.9833C12.2539 13.8446 12.149 13.7322 12.0195 13.7322H10.4961ZM12.7812 13.9833C12.7812 13.8446 12.8862 13.7322 13.0156 13.7322H14.5391C14.6685 13.7322 14.7734 13.8446 14.7734 13.9833V15.0816C14.7734 15.2202 14.6685 15.3326 14.5391 15.3326H13.0156C12.8862 15.3326 12.7812 15.2202 12.7812 15.0816V13.9833ZM2.99609 15.0502C2.99609 14.8942 3.11414 14.7678 3.25977 14.7678H4.25586C4.40148 14.7678 4.51953 14.8942 4.51953 15.0502C4.51953 15.2062 4.40148 15.3326 4.25586 15.3326H3.25977C3.11414 15.3326 2.99609 15.2062 2.99609 15.0502ZM5.75 5.13389H3.99219C3.71712 5.13389 3.49414 5.37274 3.49414 5.66736V13.1987C3.49414 13.4934 3.71712 13.7322 3.99219 13.7322H5.75C6.02506 13.7322 6.24805 13.4934 6.24805 13.1987V5.66736C6.24805 5.37274 6.02506 5.13389 5.75 5.13389ZM8.00586 16.3996V17.4665H15.5059V16.3996H8.00586ZM8.24023 9.93515V10.4686H9.23633V9.93515H8.24023ZM10.7598 10.4686V9.93515H11.7559V10.4686H10.7598ZM10.7598 12.6339V12.1004H11.7559V12.6339H10.7598ZM8.24023 12.6339V12.1004H9.23633V12.6339H8.24023ZM8.24023 14.7992V14.2657H9.23633V14.7992H8.24023ZM10.7598 14.7992V14.2657H11.7559V14.7992H10.7598ZM13.2793 14.7992V14.2657H14.2754V14.7992H13.2793ZM13.2793 12.6339V12.1004H14.2754V12.6339H13.2793ZM13.2793 10.4686V9.93515H14.2754V10.4686H13.2793Z" fill="#332E59"/>
</svg>
