<svg width="22" height="22" viewBox="0 0 22 22" fill="none" xmlns="http://www.w3.org/2000/svg">
<rect width="22" height="22" fill="#AD1700"/>
<path d="M20.6704 12.8859C20.0418 12.205 18.837 11.8907 17.1085 11.8907C16.1656 11.8907 15.1704 11.9955 14.2275 12.1526C13.5989 11.5764 13.0751 10.8955 12.5513 10.2145C12.1846 9.69071 11.818 9.1669 11.5037 8.59071C12.0275 7.12404 12.3418 5.55261 12.4466 3.98118C12.4466 2.5669 11.8704 1.04785 10.2989 1.04785C9.77512 1.04785 9.25131 1.36214 8.98941 1.83357C8.30846 2.98595 8.57036 5.34309 9.67036 7.80499C9.30369 8.90499 8.88465 10.005 8.41322 11.2098C7.99417 12.2574 7.52274 13.2526 6.94655 14.1955C5.32274 14.824 1.91798 16.3955 1.60369 18.124C1.49893 18.6479 1.65607 19.1717 2.07512 19.4859C2.44179 19.8002 2.9656 20.0098 3.48941 19.9574C5.53227 19.9574 7.57512 17.1288 8.98941 14.6669C9.77512 14.405 10.5608 14.1431 11.3989 13.9336C12.2894 13.724 13.1275 13.5145 13.9132 13.3574C16.1132 15.2431 18.0513 15.5574 18.9942 15.5574C20.3037 15.5574 20.8275 14.9812 20.9846 14.5098C21.1942 13.9336 21.0894 13.305 20.6704 12.8859ZM19.2561 13.8812C19.2037 14.2479 18.7846 14.5098 18.2608 14.5098C18.1037 14.5098 17.9466 14.5098 17.7894 14.4574C16.7418 14.1955 15.7466 13.6717 14.9085 12.9907C15.5894 12.8859 16.3227 12.8336 17.0037 12.8336C17.4751 12.8336 17.9466 12.8859 18.418 12.9383C18.8894 13.0431 19.4132 13.2526 19.2561 13.8812ZM9.87988 2.30499C9.98465 2.14785 10.1418 2.04309 10.3513 1.99071C10.8751 1.99071 10.9799 2.5669 10.9799 3.09071C10.9275 4.29547 10.718 5.44785 10.3513 6.60023C9.46084 4.34785 9.5656 2.8288 9.87988 2.30499ZM12.8132 12.3621C12.237 12.4669 11.6608 12.624 11.0846 12.7812C10.6656 12.8859 10.2466 13.0431 9.77512 13.1479C9.98465 12.6764 10.1942 12.205 10.4037 11.7859C10.6656 11.2098 10.8751 10.6336 11.0846 10.0574C11.2942 10.3717 11.4513 10.6336 11.6608 10.8955C12.0275 11.4193 12.4466 11.8907 12.8132 12.3621ZM6.47512 15.4002C5.1656 17.4955 3.85607 18.8574 3.12274 18.8574C3.01798 18.8574 2.86084 18.805 2.80846 18.7526C2.65131 18.6479 2.59893 18.4383 2.65131 18.2812C2.75608 17.4955 4.27512 16.3955 6.47512 15.4002Z" fill="white"/>
</svg>
