<svg width="219" height="81" viewBox="0 0 219 81" fill="none" xmlns="http://www.w3.org/2000/svg">
<path d="M0 0.5H3.89873V13.962H5.72367C7.3854 13.962 8.57019 13.4946 9.28009 12.5632C9.98883 11.632 10.3426 10.0696 10.3426 7.87714V6.79686C10.3426 4.49387 10.6613 2.86877 11.2955 1.92154C11.931 0.974307 13.0309 0.5 14.5998 0.5H16.0582V4.58708H15.2074C14.7859 4.58708 14.4894 4.85455 14.3136 5.38648C14.1376 5.91866 14.0504 6.8352 14.0504 8.13396V8.76963C14.0504 11.7128 13.4756 13.6961 12.3257 14.7126C11.8812 15.1039 11.284 15.4257 10.5427 15.6758C11.5797 15.8963 12.3884 16.2875 12.9705 16.8527C14.075 17.9023 14.7707 19.9482 15.0535 22.9914L15.6611 29.5539C15.7415 30.3682 15.8393 31.0835 15.9532 31.6953C16.0687 32.306 16.2338 32.9574 16.4477 33.6479H12.4642C12.2629 33.2237 12.1045 32.7289 11.9893 32.1649C11.8766 31.601 11.7704 30.8389 11.6774 29.8828L11.1107 23.9066C10.8964 21.6948 10.4705 20.1153 9.83741 19.1656C9.20329 18.2175 8.24082 17.7421 6.94577 17.7421H3.89873V33.6479H0V0.5Z" fill="#332E59"/>
<path d="M19.2492 10.5698H22.9573V13.1058L22.9767 13.0832C24.2442 11.0783 25.7024 10.0752 27.3468 10.0752C28.9632 10.0752 30.1738 10.7018 30.9745 11.955C31.7775 13.2091 32.1789 15.0879 32.1789 17.5954V26.1491C32.1789 28.9239 31.7657 30.9482 30.944 32.2264C30.1212 33.5022 28.8226 34.1414 27.043 34.1414C25.2764 34.1414 23.981 33.5308 23.1596 32.3094L22.9573 32.0035V42.2574H19.2492V10.5698ZM25.8663 30.8948C26.73 30.8948 27.384 30.4683 27.8286 29.6142C28.2733 28.7602 28.4943 27.5195 28.4943 25.89V17.3384C28.4943 16.0078 28.2791 15.013 27.8472 14.3555C27.4179 13.6972 26.7627 13.3684 25.8884 13.3684C24.89 13.3684 24.1464 13.8063 23.6539 14.6841C23.1629 15.5611 22.9312 16.8768 22.9573 18.6313V26.5019C22.9573 28.005 23.1944 29.1141 23.6643 29.8259C24.1358 30.5389 24.8714 30.8948 25.8663 30.8948Z" fill="#332E59"/>
<path d="M39.7657 34.1414C38.2573 34.1414 37.1121 33.5851 36.3312 32.4742C35.5502 31.3622 35.1591 29.7417 35.1591 27.6116V27.6583C35.1591 24.6048 35.7994 22.4797 37.0797 21.2822C38.3599 20.0846 40.621 19.4852 43.869 19.4852H44.3336V16.7323C44.3336 15.635 44.1205 14.7911 43.697 14.203C43.2747 13.6165 42.6668 13.3207 41.8721 13.3207C41.0333 13.3207 40.3857 13.6506 39.9334 14.3089C39.4794 14.9684 39.2536 15.9089 39.2536 17.1326H35.5936C35.5387 14.9209 36.0602 13.1921 37.1541 11.9448C38.2468 10.6984 39.8004 10.0752 41.8117 10.0752C43.9679 10.0752 45.546 10.6393 46.5435 11.7673C47.5423 12.8953 48.0413 14.6739 48.0413 17.103V33.6479H44.3336V31.2517C44.2532 31.5181 44.138 31.776 43.9879 32.0273C43.1943 33.4362 41.786 34.1414 39.7657 34.1414ZM44.3336 22.6843H43.5235C42.014 22.6843 40.863 23.0947 40.0763 23.9162C39.2859 24.738 38.8913 25.9299 38.8913 27.4935V27.4466C38.8913 28.6816 39.0675 29.5653 39.4189 30.0974C39.7681 30.6296 40.3475 30.8948 41.1563 30.8948C42.2504 30.8948 43.0661 30.3784 43.6039 29.3471C44.1439 28.3144 44.3871 26.8055 44.3336 24.8199V22.6843Z" fill="#332E59"/>
<path d="M63.3719 26.3779V27.06C63.4394 29.4765 62.9809 31.2585 61.9964 32.4129C61.0131 33.5647 59.4641 34.1414 57.347 34.1414C55.1487 34.1414 53.5438 33.5196 52.523 32.2729C51.506 31.0265 50.9984 29.0492 50.9984 26.338V18.6531C50.9984 15.5667 51.4837 13.365 52.4545 12.0493C53.4239 10.7335 55.0555 10.0752 57.3493 10.0752C59.4103 10.0752 60.907 10.6325 61.8382 11.7445C62.6992 12.7965 63.131 14.3965 63.131 16.5445V17.7205H59.4254V17.0349C59.4788 15.7429 59.3336 14.8002 58.994 14.2088C58.6505 13.6175 58.0907 13.3207 57.3144 13.3207C56.3439 13.3207 55.6652 13.6471 55.2811 14.2973C54.8971 14.948 54.7064 16.0979 54.7064 17.7444V26.1664C54.7064 27.9698 54.8868 29.2094 55.2511 29.8828C55.6129 30.5568 56.2776 30.8948 57.2448 30.8948C58.1185 30.8948 58.7551 30.5811 59.1497 29.9545C59.549 29.3266 59.7177 28.3623 59.6663 27.06V26.3779H63.3719Z" fill="#332E59"/>
<path d="M77.6484 0.5V3.79344C80.5473 3.9662 82.563 4.66338 83.6955 5.88359C84.9756 7.24461 85.6179 9.75005 85.6179 13.3982V20.2803C85.6179 23.8337 84.917 26.4008 83.5127 27.9812C82.287 29.3754 80.3299 30.1498 77.6484 30.3057V33.6479H73.7472V30.3057C70.8749 30.1803 68.8498 29.4685 67.677 28.1699C66.3965 26.7293 65.7543 24.1001 65.7543 20.2803V13.3982C65.7543 10.016 66.4549 7.57347 67.8584 6.07113C69.1257 4.72589 71.0888 3.97397 73.7472 3.81712V0.5H77.6484ZM73.7472 7.60404C72.4496 7.7451 71.478 8.19096 70.8298 8.94125C70.0464 9.86468 69.6553 11.3661 69.6553 13.4445V20.3269C69.6553 22.7037 70.0199 24.3457 70.7491 25.2531C71.3694 25.9876 72.3689 26.4255 73.7472 26.5665V7.60404ZM81.7167 13.4445C81.7167 11.2092 81.3513 9.66925 80.6226 8.82437C80.0573 8.13634 79.0659 7.72255 77.6484 7.58148V26.5189C78.9435 26.3788 79.9072 25.9092 80.5426 25.1123C81.3258 24.143 81.7167 22.5477 81.7167 20.3269V13.4445Z" fill="#332E59"/>
<path d="M92.9126 34.1414C91.404 34.1414 90.259 33.5851 89.477 32.4742C88.6958 31.3622 88.3063 29.7417 88.3063 27.6116V27.6583C88.3063 24.6048 88.944 22.4797 90.2242 21.2822C91.5041 20.0846 93.7664 19.4852 97.0125 19.4852H97.477V16.7323C97.477 15.635 97.266 14.7911 96.8416 14.203C96.4202 13.6165 95.8125 13.3207 95.0189 13.3207C94.1787 13.3207 93.5329 13.6506 93.0789 14.3089C92.6239 14.9684 92.3983 15.9089 92.3983 17.1326H88.7383C88.6831 14.9209 89.2033 13.1921 90.2972 11.9448C91.3913 10.6984 92.9449 10.0752 94.9586 10.0752C97.1147 10.0752 98.6916 10.6393 99.6906 11.7673C100.685 12.8953 101.185 14.6739 101.185 17.103V33.6479H97.477V31.2517C97.3964 31.5181 97.2834 31.776 97.1348 32.0273C96.3402 33.4362 94.9319 34.1414 92.9126 34.1414ZM97.477 22.6843H96.6707C95.1573 22.6843 94.0101 23.0947 93.2197 23.9162C92.433 24.738 92.0371 25.9299 92.0371 27.4935V27.4466C92.0371 28.6816 92.2103 29.5653 92.5624 30.0974C92.9137 30.6296 93.4936 30.8948 94.3035 30.8948C95.3939 30.8948 96.2097 30.3784 96.7506 29.3471C97.2886 28.3144 97.5316 26.8055 97.477 24.8199V22.6843Z" fill="#332E59"/>
<path d="M104.264 10.5698H107.972V13.1058L107.992 13.0832C109.258 11.0783 110.714 10.0752 112.359 10.0752C113.977 10.0752 115.186 10.7018 115.988 11.955C116.788 13.2091 117.193 15.0879 117.193 17.5954V26.1491C117.193 28.9239 116.78 30.9482 115.958 32.2264C115.136 33.5022 113.834 34.1414 112.055 34.1414C110.289 34.1414 108.996 33.5308 108.173 32.3094L107.972 32.0035V42.2574H104.264V10.5698ZM110.881 30.8948C111.743 30.8948 112.398 30.4683 112.843 29.6142C113.284 28.7602 113.509 27.5195 113.509 25.89V17.3384C113.509 16.0078 113.294 15.013 112.862 14.3555C112.43 13.6972 111.778 13.3684 110.901 13.3684C109.905 13.3684 109.16 13.8063 108.668 14.6841C108.176 15.5611 107.944 16.8768 107.972 18.6313V26.5019C107.972 28.005 108.206 29.1141 108.679 29.8259C109.15 30.5389 109.883 30.8948 110.881 30.8948Z" fill="#332E59"/>
<path d="M123.665 33.6479H120.222V10.5697H126.253L130.033 27.8926H130.028L133.645 10.5697H139.675V33.6479H136.233V19.3113C136.233 18.6849 136.247 17.6316 136.273 16.151C136.301 14.6717 136.321 13.8767 136.334 13.7678C136.321 13.8938 136.158 14.676 135.85 16.1171C135.54 17.5568 135.318 18.5678 135.183 19.1477L131.91 33.6479H127.987L124.715 19.1477C124.581 18.5516 124.357 17.5338 124.049 16.0933C123.739 14.6523 123.578 13.8767 123.565 13.7678C123.578 13.8938 123.598 14.692 123.624 16.1638C123.652 17.6349 123.665 18.6849 123.665 19.3113V33.6479Z" fill="#332E59"/>
<path d="M147.047 34.1414C145.538 34.1414 144.392 33.5851 143.613 32.4742C142.83 31.3622 142.439 29.7417 142.439 27.6116V27.6583C142.439 24.6048 143.079 22.4797 144.359 21.2822C145.639 20.0846 147.903 19.4852 151.149 19.4852H151.613V16.7323C151.613 15.635 151.4 14.7911 150.976 14.203C150.554 13.6165 149.947 13.3207 149.152 13.3207C148.312 13.3207 147.665 13.6506 147.213 14.3089C146.759 14.9684 146.533 15.9089 146.533 17.1326H142.873C142.82 14.9209 143.34 13.1921 144.434 11.9448C145.527 10.6984 147.08 10.0752 149.091 10.0752C151.25 10.0752 152.826 10.6393 153.823 11.7673C154.821 12.8953 155.32 14.6739 155.32 17.103V33.6479H151.613V31.2517C151.533 31.5181 151.418 31.776 151.27 32.0273C150.474 33.4362 149.068 34.1414 147.047 34.1414ZM151.613 22.6843H150.803C149.293 22.6843 148.144 23.0947 147.353 23.9162C146.566 24.738 146.171 25.9299 146.171 27.4935V27.4466C146.171 28.6816 146.347 29.5653 146.698 30.0974C147.047 30.6296 147.627 30.8948 148.436 30.8948C149.53 30.8948 150.346 30.3784 150.883 29.3471C151.423 28.3144 151.666 26.8055 151.613 24.8199V22.6843Z" fill="#332E59"/>
<path d="M171.136 75.893H171.113C170.684 75.3587 170.179 75.0912 169.597 75.0912C169.271 75.0912 168.977 75.172 168.712 75.3335C168.445 75.4925 168.241 75.7087 168.091 75.9773C167.946 76.2492 167.872 76.5412 167.872 76.8574C167.872 77.1711 167.941 77.4636 168.081 77.7351C168.219 78.0048 168.419 78.2206 168.676 78.3826C168.932 78.5428 169.226 78.6235 169.555 78.6235C170.187 78.6235 170.717 78.3481 171.144 77.801H171.168V78.8884C170.673 79.2121 170.157 79.3738 169.619 79.3738C169.133 79.3738 168.692 79.2638 168.295 79.045C167.898 78.8245 167.586 78.522 167.36 78.1399C167.132 77.7547 167.019 77.3258 167.019 76.8574C167.019 76.3934 167.137 75.9689 167.37 75.5857C167.605 75.1996 167.922 74.897 168.323 74.6741C168.724 74.4509 169.158 74.3407 169.627 74.3407C170.179 74.3407 170.679 74.4998 171.136 74.8182V75.893Z" fill="#332E59"/>
<path d="M176.869 72.3825H175.57L176.026 71.5935H177.743V79.2433H176.869V72.3825Z" fill="#332E59"/>
<path d="M181.433 79.3738L180.775 78.9373L182.582 76.5069L182.563 76.489C182.335 76.556 182.109 76.5899 181.888 76.5899C181.421 76.5899 180.994 76.4777 180.605 76.2511C180.215 76.0237 179.909 75.7168 179.686 75.329C179.463 74.939 179.352 74.517 179.352 74.0657C179.352 73.5901 179.473 73.1537 179.718 72.7532C179.962 72.354 180.289 72.0391 180.704 71.8048C181.117 71.5719 181.569 71.4555 182.053 71.4555C182.417 71.4555 182.762 71.5238 183.09 71.657C183.416 71.7889 183.704 71.9754 183.954 72.2141C184.205 72.4564 184.401 72.7341 184.541 73.0522C184.682 73.3695 184.752 73.7073 184.752 74.0657C184.752 74.6317 184.511 75.2436 184.027 75.901L181.433 79.3738ZM182.053 72.2437C181.724 72.2437 181.418 72.3245 181.135 72.4859C180.851 72.6489 180.63 72.8655 180.469 73.1389C180.306 73.4102 180.223 73.7095 180.223 74.0338C180.223 74.3579 180.306 74.6568 180.469 74.9286C180.63 75.1996 180.851 75.4118 181.133 75.5689C181.413 75.7235 181.719 75.8019 182.053 75.8019C182.383 75.8019 182.688 75.7235 182.969 75.5689C183.248 75.4118 183.469 75.1996 183.635 74.9266C183.798 74.652 183.883 74.3555 183.883 74.0338C183.883 73.7128 183.798 73.4139 183.635 73.1409C183.469 72.8635 183.248 72.6449 182.967 72.4859C182.684 72.3245 182.38 72.2437 182.053 72.2437Z" fill="#332E59"/>
<path d="M190.026 72.3825H187.525L187.015 74.0166L187.485 73.9746C187.864 73.9746 188.211 74.0418 188.534 74.1781C188.856 74.3135 189.131 74.5046 189.365 74.748C189.597 74.9925 189.778 75.2775 189.901 75.602C190.026 75.927 190.089 76.2739 190.089 76.6436C190.089 77.1588 189.961 77.6227 189.707 78.04C189.452 78.4609 189.104 78.7875 188.665 79.0203C188.224 79.2583 187.739 79.3738 187.213 79.3738C186.7 79.3738 186.24 79.2557 185.829 79.016C185.416 78.7757 185.078 78.4393 184.812 78.0048L185.509 77.5193C185.69 77.8366 185.932 78.0935 186.24 78.2902C186.549 78.488 186.88 78.5859 187.242 78.5859C187.623 78.5859 187.96 78.5004 188.261 78.3314C188.56 78.1594 188.794 77.924 188.964 77.6227C189.133 77.3214 189.217 76.9893 189.217 76.622C189.217 76.2682 189.131 75.9474 188.959 75.6656C188.788 75.3835 188.552 75.164 188.254 75.0049C187.957 74.8459 187.629 74.7651 187.265 74.7651C186.788 74.7651 186.293 74.9266 185.781 75.2503L186.911 71.5935H190.026V72.3825Z" fill="#332E59"/>
<path d="M193.196 79.3738L192.541 78.9373L194.349 76.5069L194.329 76.489C194.103 76.556 193.878 76.5899 193.654 76.5899C193.189 76.5899 192.762 76.4777 192.372 76.2511C191.982 76.0237 191.678 75.7168 191.452 75.329C191.231 74.939 191.118 74.517 191.118 74.0657C191.118 73.5901 191.239 73.1537 191.482 72.7532C191.728 72.354 192.057 72.0391 192.47 71.8048C192.884 71.5719 193.333 71.4555 193.819 71.4555C194.183 71.4555 194.531 71.5238 194.856 71.657C195.182 71.7889 195.471 71.9754 195.722 72.2141C195.973 72.4564 196.169 72.7341 196.308 73.0522C196.449 73.3695 196.52 73.7073 196.52 74.0657C196.52 74.6317 196.277 75.2436 195.794 75.901L193.196 79.3738ZM193.819 72.2437C193.49 72.2437 193.183 72.3245 192.902 72.4859C192.619 72.6489 192.396 72.8655 192.233 73.1389C192.072 73.4102 191.991 73.7095 191.991 74.0338C191.991 74.3579 192.072 74.6568 192.233 74.9286C192.396 75.1996 192.617 75.4118 192.9 75.5689C193.179 75.7235 193.485 75.8019 193.819 75.8019C194.148 75.8019 194.454 75.7235 194.737 75.5689C195.017 75.4118 195.237 75.1996 195.401 74.9266C195.566 74.652 195.647 74.3555 195.647 74.0338C195.647 73.7128 195.566 73.4139 195.401 73.1409C195.237 72.8635 195.015 72.6449 194.733 72.4859C194.453 72.3245 194.147 72.2437 193.819 72.2437Z" fill="#332E59"/>
<path d="M200.321 74.4726H203.199V75.1968H201.156V79.2534L200.321 79.2433V74.4726Z" fill="#332E59"/>
<path d="M203.619 76.8673C203.619 76.4058 203.732 75.9817 203.963 75.594C204.189 75.2084 204.5 74.9026 204.894 74.6783C205.288 74.4534 205.718 74.3407 206.186 74.3407C206.541 74.3407 206.878 74.4042 207.189 74.5365C207.503 74.6648 207.774 74.8478 208.012 75.081C208.245 75.3144 208.428 75.5836 208.557 75.8905C208.688 76.1976 208.753 76.5233 208.753 76.8673C208.753 77.3238 208.638 77.7454 208.408 78.132C208.18 78.5176 207.868 78.8201 207.475 79.0433C207.083 79.2637 206.653 79.3738 206.186 79.3738C205.72 79.3738 205.288 79.2637 204.897 79.0433C204.505 78.8201 204.192 78.5176 203.963 78.132C203.732 77.7454 203.619 77.3238 203.619 76.8673ZM204.453 76.8574C204.453 77.176 204.527 77.4705 204.672 77.743C204.817 78.0151 205.023 78.2311 205.288 78.3881C205.552 78.5428 205.853 78.6235 206.186 78.6235C206.521 78.6235 206.82 78.5428 207.083 78.3881C207.347 78.2311 207.551 78.0151 207.699 77.743C207.847 77.4724 207.919 77.1779 207.919 76.8574C207.919 76.5381 207.847 76.2432 207.699 75.9713C207.551 75.702 207.347 75.4881 207.081 75.329C206.813 75.172 206.514 75.0912 206.186 75.0912C205.856 75.0912 205.559 75.172 205.293 75.329C205.028 75.4881 204.822 75.702 204.674 75.9737C204.527 76.2443 204.453 76.5388 204.453 76.8574Z" fill="#332E59"/>
<path d="M209.942 74.4726H213.082V78.5539H213.455V80.5H212.621V79.2433H210.161V80.5H209.328V78.5344L209.463 78.5539C209.569 78.5539 209.654 78.4789 209.716 78.3265C209.782 78.1766 209.829 77.9365 209.862 77.6103C209.895 77.2839 209.916 76.8845 209.927 76.4138C209.937 75.9441 209.942 75.2951 209.942 74.4726ZM212.246 75.1968H210.721C210.721 76.1308 210.706 76.8913 210.675 77.4804C210.643 78.0696 210.567 78.4288 210.444 78.5539H212.246V75.1968Z" fill="#332E59"/>
<path d="M219 79.2433H218.166V78.5835H218.146C217.72 79.111 217.159 79.3738 216.462 79.3738C216.117 79.3738 215.799 79.3057 215.508 79.1727C215.217 79.0372 214.969 78.8545 214.765 78.6211C214.564 78.3904 214.406 78.1231 214.295 77.8193C214.186 77.5145 214.129 77.1983 214.129 76.8673C214.129 76.4105 214.225 75.9909 214.416 75.6045C214.604 75.2164 214.878 74.9118 215.236 74.6819C215.593 74.4558 216.004 74.3407 216.472 74.3407C216.803 74.3407 217.111 74.4111 217.399 74.5533C217.69 74.6944 217.939 74.8947 218.146 75.1529H218.166V74.4726H219V79.2433ZM214.981 76.8062C214.981 77.1268 215.043 77.4257 215.167 77.7034C215.292 77.9785 215.475 78.2015 215.718 78.3685C215.96 78.5391 216.248 78.6235 216.577 78.6235C217.089 78.6235 217.488 78.4492 217.774 78.1015C218.063 77.7567 218.206 77.3258 218.206 76.8174C218.206 76.4989 218.141 76.2068 218.009 75.9441C217.877 75.6828 217.686 75.4758 217.438 75.3199C217.192 75.1675 216.901 75.0912 216.568 75.0912C216.26 75.0912 215.985 75.172 215.741 75.331C215.497 75.4905 215.31 75.702 215.177 75.9645C215.045 76.2275 214.981 76.5069 214.981 76.8062Z" fill="#332E59"/>
<path d="M161.002 2.414V79.2123H161.953V2.414H161.002Z" fill="#332E59"/>
<path fill-rule="evenodd" clip-rule="evenodd" d="M205.017 3.9885L205.279 4.10939C204.688 4.15324 204.475 4.71699 204.262 5.05988C204.478 5.07942 204.394 5.01177 204.606 5.09934C204.271 5.19994 204.154 5.26508 203.985 5.52478C203.834 5.75705 203.699 5.93231 203.659 6.15481C203.88 6.19139 203.79 6.13765 203.988 6.13364C203.237 6.50722 203.404 6.74049 203.128 7.23784L203.601 7.28044C202.752 7.47073 202.982 7.85108 202.687 8.14423C202.701 8.23606 202.712 8.33265 202.721 8.43412C202.865 8.51869 202.965 8.53823 203.093 8.61064L204.06 9.11827L204.229 8.52708C204.371 7.59513 207.813 -1.12386 205.017 3.9885Z" fill="#332E59"/>
<path fill-rule="evenodd" clip-rule="evenodd" d="M199.217 5.27962C199.419 5.70118 200.176 6.3852 200.375 6.7029C200.629 7.10555 200.614 7.64713 200.671 8.14573L199.116 9.09384C198.959 8.83264 198.807 8.62217 199.082 7.03414C198.875 6.48868 198.918 5.89761 199.161 5.27009C199.17 5.24905 199.207 5.25795 199.217 5.27962Z" fill="#332E59"/>
<path fill-rule="evenodd" clip-rule="evenodd" d="M201.833 5.61675C202.183 5.67162 202.42 5.9218 202.561 6.33722C202.924 6.70942 203.082 7.12548 203.028 7.5865L201.712 7.49993C202.099 6.6875 202.233 5.98933 201.833 5.61675Z" fill="#332E59"/>
<path fill-rule="evenodd" clip-rule="evenodd" d="M194.285 19.9169C194.471 21.8112 194.348 23.8422 194.023 25.9477C194.019 25.9726 193.999 26.0594 193.926 26.1668C193.699 26.4976 193.548 26.8649 193.38 27.2722L193.38 27.2725C192.703 28.9183 191.758 31.2163 184.465 34.3892C178.87 36.8235 177.313 39.5761 176.772 40.5317C176.675 40.7034 176.611 40.817 176.562 40.8604C171.777 40.3252 169.047 44.7581 168.638 50.6329C168.636 50.6626 168.628 50.6807 168.611 50.702C165.93 54.1434 166.021 56.2911 166.376 57.4458C166.433 56.9366 166.555 56.5337 166.813 56.3527C166.418 57.6705 166.35 60.0893 166.861 61.394L166.945 60.0903C167.177 61.6006 168.059 62.5556 169.546 62.9939C167.792 59.1902 169.386 57.8463 172.005 55.6385C172.656 55.0897 173.37 54.4875 174.112 53.7809C176.264 51.4944 175.986 49.455 175.732 47.5891C175.542 46.1939 175.365 44.8956 176.227 43.6634C176.888 47.1535 178.264 49.6416 180.161 51.3987C180.337 53.0454 180.267 55.1355 180.153 55.5056C180.002 55.9926 179.786 56.4764 179.564 56.9716C179.505 57.1049 179.445 57.239 179.386 57.3742C180.687 60.7434 182.131 63.9435 184.06 66.5678C184.37 66.3667 184.682 66.481 184.992 66.8926C184.769 67.8407 184.955 68.4468 185.359 68.8699C186.652 69.397 187.85 69.2749 188.605 68.5328C188.013 67.2276 187.163 66.3449 186.213 65.7398L182.853 59.8753C182.621 58.9486 182.585 57.9213 182.659 56.9335C185.944 51.4309 186.24 48.5949 186.433 46.7431C186.549 45.6226 186.629 44.8624 187.31 44.0897C187.55 43.8268 187.686 43.8225 187.724 44.0627C187.056 44.9395 186.911 46.154 186.749 47.5161C186.635 48.4782 186.512 49.5139 186.189 50.5565C187.797 52.2782 187.002 53.8805 185.122 55.8976C184.358 56.4485 185.968 58.4506 187.889 60.8412L187.89 60.8415C188.697 61.8455 189.559 62.9179 190.323 63.9802C190.358 64.0285 190.499 64.0505 190.56 64.0299C191.346 63.7646 191.503 64.4097 191.327 65.6112C192.781 66.7905 194.028 66.8934 195.034 65.7535C194.574 64.5866 193.586 63.67 192.249 62.9201C190.925 61.5656 189.806 60.0997 188.885 58.5264C188.157 57.0673 188.903 55.5112 190.459 53.9209C191.933 52.4209 193.047 50.453 193.983 48.2526C194.733 46.6276 194.528 46.2122 194.315 45.7813C194.169 45.4856 194.019 45.1826 194.172 44.4763C194.192 44.386 194.197 44.3832 194.264 44.3476L194.275 44.342C198.841 41.9144 203.298 39.0245 207.288 35.4483C207.329 35.4108 207.315 35.329 207.232 35.3072C205.65 35.1341 204.157 35.0391 202.04 35.942C201.8 36.0442 201.591 35.9496 201.517 35.8889C200.131 34.7486 198.967 33.6497 198.224 32.5802C199.304 33.6335 200.385 34.6868 201.556 35.3855L201.568 35.3943C201.84 35.5876 201.881 35.6172 202.333 35.5098C204.385 35.0221 206.207 34.6608 206.624 34.6912C207.383 34.7466 207.966 34.8006 208.465 34.8469C209.632 34.955 210.346 35.0211 211.794 34.9646C212.085 35.3294 212.307 35.5504 212.598 35.5738C212.158 36.5051 212.123 37.5558 212.166 38.6448C211.921 39.3116 211.64 39.7631 210.964 39.7468C210.89 39.7451 210.828 39.7838 210.793 39.8382C210.455 40.3571 209.896 40.6408 209.325 40.845C208.963 41.0725 208.635 41.3426 208.462 41.8069C208.207 42.8402 208.208 43.4458 208.409 43.7177C209.571 43.5876 210.878 42.7482 212.202 41.8267C212.596 41.6162 212.907 41.3909 212.937 41.1146C213.219 40.8689 213.897 40.7818 214.524 40.8185C214.527 40.8186 214.53 40.819 214.533 40.8193C214.548 40.8212 214.565 40.8232 214.588 40.7959C215.091 40.2028 215.588 39.7213 216.519 39.3849C216.971 39.2909 217.299 39.0657 217.402 38.6042L217.41 37.4277C217.41 37.4016 217.409 37.4037 217.421 37.3803L217.514 37.1902C218.286 35.607 219.059 34.024 218.94 32.287C218.888 31.8458 218.596 31.5606 218.228 31.3251L218.225 31.3235C218.216 31.3174 218.212 31.3143 218.19 31.3189C215.788 31.7675 214.405 31.1169 213.516 30.3444C213.479 30.3132 213.456 30.3109 213.419 30.3074C212.882 30.2552 212.863 30.1833 212.787 29.8971L212.777 29.8595C212.708 28.3387 212.467 27.1958 211.968 26.6203C205.759 22.349 203.662 18.5544 202.903 16.4271C202.893 16.3984 202.886 16.3767 202.883 16.361L202.902 16.3641L202.903 16.3289L202.887 16.3265C202.899 16.3203 202.925 16.3319 202.966 16.3499L202.972 16.3524C203.754 16.6944 204.619 16.9024 205.515 17.1179C205.854 17.1995 206.198 17.2822 206.543 17.3736C206.609 17.4804 207.173 17.8536 207.311 17.8537L208.573 17.8547C208.833 17.8549 209.043 17.5459 209.217 17.2901L209.245 17.2484L209.259 17.229C209.842 16.7333 209.811 16.2196 209.673 15.1581C209.691 15.0705 209.708 14.9929 209.724 14.9239C209.803 14.5682 209.831 14.4404 209.653 14.3534C208.399 13.4836 207.168 12.3983 206.074 11.3425C205.957 11.2298 205.768 10.9873 205.741 10.8442C205.571 9.92833 204.944 9.54347 203.973 9.03221L203.031 7.48402L201.734 7.47487C201.377 7.40284 201.016 7.40096 200.649 7.50394L199.115 7.88491C198.05 8.09913 197.104 8.47309 196.669 9.54146C197.26 9.42107 197.448 9.80881 197.443 10.6156C196.896 9.35142 195.27 9.70596 195.117 12.0138C195.889 11.8775 196.281 12.2222 196.247 13.0924C195.102 11.6491 194.097 13.2689 194.247 15.58C195.201 15.764 195.332 16.5188 195.463 17.2696L195.47 17.314C194.4 15.252 193.66 16.2036 194.051 19.2126C194.741 19.1568 195.1 19.4887 195.202 20.1223C194.672 19.5804 194.353 19.4824 194.285 19.9169ZM202.887 16.3265C199.536 15.8042 198.968 14.6431 198.882 12.71C198.945 15.7305 199.435 15.8086 202.136 16.2399C202.368 16.2769 202.617 16.3166 202.883 16.361C202.879 16.3409 202.88 16.3303 202.887 16.3265ZM216.706 33.1722C215.963 33.4217 215.074 33.4649 214.036 33.3003C214.022 33.2981 214.011 33.2959 214.001 33.2942L213.999 33.2938C213.988 33.2917 213.98 33.2904 213.975 33.2904C213.973 33.2905 213.972 33.2908 213.971 33.2917C213.969 33.2954 213.984 33.3079 214.013 33.337L215.053 34.3916C215.378 34.9607 214.701 36.7164 214.024 38.4699L213.945 38.6762C214.2 38.4149 214.486 38.2601 214.822 38.2877C216.53 36.2056 216.88 34.5975 216.706 33.1722Z" fill="#332E59"/>
</svg>
