<svg width="432" height="812" viewBox="0 0 432 812" fill="none" xmlns="http://www.w3.org/2000/svg">
<g clip-path="url(#clip0_2368_63422)">
<path d="M-4 12L8 0" stroke="#e6ecfa" stroke-width="2" style="mix-blend-mode:soft-light"/>
<path d="M23 12L35 0" stroke="#e6ecfa" stroke-width="2" style="mix-blend-mode:soft-light"/>
<path d="M50 12L62 0" stroke="#e6ecfa" stroke-width="2" style="mix-blend-mode:soft-light"/>
<path d="M77 12L89 0" stroke="#e6ecfa" stroke-width="2" style="mix-blend-mode:soft-light"/>
<path d="M104 12L116 0" stroke="#e6ecfa" stroke-width="2" style="mix-blend-mode:soft-light"/>
<path d="M131 12L143 0" stroke="#e6ecfa" stroke-width="2" style="mix-blend-mode:soft-light"/>
<path d="M158 12L170 0" stroke="#e6ecfa" stroke-width="2" style="mix-blend-mode:soft-light"/>
<path d="M185 12L197 0" stroke="#e6ecfa" stroke-width="2" style="mix-blend-mode:soft-light"/>
<path d="M212 12L224 0" stroke="#e6ecfa" stroke-width="2" style="mix-blend-mode:soft-light"/>
<path d="M239 12L251 0" stroke="#e6ecfa" stroke-width="2" style="mix-blend-mode:soft-light"/>
<path d="M266 12L278 0" stroke="#e6ecfa" stroke-width="2" style="mix-blend-mode:soft-light"/>
<path d="M293 12L305 0" stroke="#e6ecfa" stroke-width="2" style="mix-blend-mode:soft-light"/>
<path d="M320 12L332 0" stroke="#e6ecfa" stroke-width="2" style="mix-blend-mode:soft-light"/>
<path d="M347 12L359 0" stroke="#e6ecfa" stroke-width="2" style="mix-blend-mode:soft-light"/>
<path d="M374 12L386 0" stroke="#e6ecfa" stroke-width="2" style="mix-blend-mode:soft-light"/>
<path d="M401 12L413 0" stroke="#e6ecfa" stroke-width="2" style="mix-blend-mode:soft-light"/>
<path d="M428 12L440 0" stroke="#e6ecfa" stroke-width="2" style="mix-blend-mode:soft-light"/>
<path d="M-4 44L8 32" stroke="#e6ecfa" stroke-width="2" style="mix-blend-mode:soft-light"/>
<path d="M23 44L35 32" stroke="#e6ecfa" stroke-width="2" style="mix-blend-mode:soft-light"/>
<path d="M50 44L62 32" stroke="#e6ecfa" stroke-width="2" style="mix-blend-mode:soft-light"/>
<path d="M77 44L89 32" stroke="#e6ecfa" stroke-width="2" style="mix-blend-mode:soft-light"/>
<path d="M104 44L116 32" stroke="#e6ecfa" stroke-width="2" style="mix-blend-mode:soft-light"/>
<path d="M131 44L143 32" stroke="#e6ecfa" stroke-width="2" style="mix-blend-mode:soft-light"/>
<path d="M158 44L170 32" stroke="#e6ecfa" stroke-width="2" style="mix-blend-mode:soft-light"/>
<path d="M185 44L197 32" stroke="#e6ecfa" stroke-width="2" style="mix-blend-mode:soft-light"/>
<path d="M212 44L224 32" stroke="#e6ecfa" stroke-width="2" style="mix-blend-mode:soft-light"/>
<path d="M239 44L251 32" stroke="#e6ecfa" stroke-width="2" style="mix-blend-mode:soft-light"/>
<path d="M266 44L278 32" stroke="#e6ecfa" stroke-width="2" style="mix-blend-mode:soft-light"/>
<path d="M293 44L305 32" stroke="#e6ecfa" stroke-width="2" style="mix-blend-mode:soft-light"/>
<path d="M320 44L332 32" stroke="#e6ecfa" stroke-width="2" style="mix-blend-mode:soft-light"/>
<path d="M347 44L359 32" stroke="#e6ecfa" stroke-width="2" style="mix-blend-mode:soft-light"/>
<path d="M374 44L386 32" stroke="#e6ecfa" stroke-width="2" style="mix-blend-mode:soft-light"/>
<path d="M401 44L413 32" stroke="#e6ecfa" stroke-width="2" style="mix-blend-mode:soft-light"/>
<path d="M428 44L440 32" stroke="#e6ecfa" stroke-width="2" style="mix-blend-mode:soft-light"/>
<path d="M-4 76L8 64" stroke="#e6ecfa" stroke-width="2" style="mix-blend-mode:soft-light"/>
<path d="M23 76L35 64" stroke="#e6ecfa" stroke-width="2" style="mix-blend-mode:soft-light"/>
<path d="M50 76L62 64" stroke="#e6ecfa" stroke-width="2" style="mix-blend-mode:soft-light"/>
<path d="M77 76L89 64" stroke="#e6ecfa" stroke-width="2" style="mix-blend-mode:soft-light"/>
<path d="M104 76L116 64" stroke="#e6ecfa" stroke-width="2" style="mix-blend-mode:soft-light"/>
<path d="M131 76L143 64" stroke="#e6ecfa" stroke-width="2" style="mix-blend-mode:soft-light"/>
<path d="M158 76L170 64" stroke="#e6ecfa" stroke-width="2" style="mix-blend-mode:soft-light"/>
<path d="M185 76L197 64" stroke="#e6ecfa" stroke-width="2" style="mix-blend-mode:soft-light"/>
<path d="M212 76L224 64" stroke="#e6ecfa" stroke-width="2" style="mix-blend-mode:soft-light"/>
<path d="M239 76L251 64" stroke="#e6ecfa" stroke-width="2" style="mix-blend-mode:soft-light"/>
<path d="M266 76L278 64" stroke="#e6ecfa" stroke-width="2" style="mix-blend-mode:soft-light"/>
<path d="M293 76L305 64" stroke="#e6ecfa" stroke-width="2" style="mix-blend-mode:soft-light"/>
<path d="M320 76L332 64" stroke="#e6ecfa" stroke-width="2" style="mix-blend-mode:soft-light"/>
<path d="M347 76L359 64" stroke="#e6ecfa" stroke-width="2" style="mix-blend-mode:soft-light"/>
<path d="M374 76L386 64" stroke="#e6ecfa" stroke-width="2" style="mix-blend-mode:soft-light"/>
<path d="M401 76L413 64" stroke="#e6ecfa" stroke-width="2" style="mix-blend-mode:soft-light"/>
<path d="M428 76L440 64" stroke="#e6ecfa" stroke-width="2" style="mix-blend-mode:soft-light"/>
<path d="M-4 108L8 96" stroke="#e6ecfa" stroke-width="2" style="mix-blend-mode:soft-light"/>
<path d="M23 108L35 96" stroke="#e6ecfa" stroke-width="2" style="mix-blend-mode:soft-light"/>
<path d="M50 108L62 96" stroke="#e6ecfa" stroke-width="2" style="mix-blend-mode:soft-light"/>
<path d="M77 108L89 96" stroke="#e6ecfa" stroke-width="2" style="mix-blend-mode:soft-light"/>
<path d="M104 108L116 96" stroke="#e6ecfa" stroke-width="2" style="mix-blend-mode:soft-light"/>
<path d="M131 108L143 96" stroke="#e6ecfa" stroke-width="2" style="mix-blend-mode:soft-light"/>
<path d="M158 108L170 96" stroke="#e6ecfa" stroke-width="2" style="mix-blend-mode:soft-light"/>
<path d="M185 108L197 96" stroke="#e6ecfa" stroke-width="2" style="mix-blend-mode:soft-light"/>
<path d="M212 108L224 96" stroke="#e6ecfa" stroke-width="2" style="mix-blend-mode:soft-light"/>
<path d="M239 108L251 96" stroke="#e6ecfa" stroke-width="2" style="mix-blend-mode:soft-light"/>
<path d="M266 108L278 96" stroke="#e6ecfa" stroke-width="2" style="mix-blend-mode:soft-light"/>
<path d="M293 108L305 96" stroke="#e6ecfa" stroke-width="2" style="mix-blend-mode:soft-light"/>
<path d="M320 108L332 96" stroke="#e6ecfa" stroke-width="2" style="mix-blend-mode:soft-light"/>
<path d="M347 108L359 96" stroke="#e6ecfa" stroke-width="2" style="mix-blend-mode:soft-light"/>
<path d="M374 108L386 96" stroke="#e6ecfa" stroke-width="2" style="mix-blend-mode:soft-light"/>
<path d="M401 108L413 96" stroke="#e6ecfa" stroke-width="2" style="mix-blend-mode:soft-light"/>
<path d="M428 108L440 96" stroke="#e6ecfa" stroke-width="2" style="mix-blend-mode:soft-light"/>
<path d="M-4 140L8 128" stroke="#e6ecfa" stroke-width="2" style="mix-blend-mode:soft-light"/>
<path d="M23 140L35 128" stroke="#e6ecfa" stroke-width="2" style="mix-blend-mode:soft-light"/>
<path d="M50 140L62 128" stroke="#e6ecfa" stroke-width="2" style="mix-blend-mode:soft-light"/>
<path d="M77 140L89 128" stroke="#e6ecfa" stroke-width="2" style="mix-blend-mode:soft-light"/>
<path d="M104 140L116 128" stroke="#e6ecfa" stroke-width="2" style="mix-blend-mode:soft-light"/>
<path d="M131 140L143 128" stroke="#e6ecfa" stroke-width="2" style="mix-blend-mode:soft-light"/>
<path d="M158 140L170 128" stroke="#e6ecfa" stroke-width="2" style="mix-blend-mode:soft-light"/>
<path d="M185 140L197 128" stroke="#e6ecfa" stroke-width="2" style="mix-blend-mode:soft-light"/>
<path d="M212 140L224 128" stroke="#e6ecfa" stroke-width="2" style="mix-blend-mode:soft-light"/>
<path d="M239 140L251 128" stroke="#e6ecfa" stroke-width="2" style="mix-blend-mode:soft-light"/>
<path d="M266 140L278 128" stroke="#e6ecfa" stroke-width="2" style="mix-blend-mode:soft-light"/>
<path d="M293 140L305 128" stroke="#e6ecfa" stroke-width="2" style="mix-blend-mode:soft-light"/>
<path d="M320 140L332 128" stroke="#e6ecfa" stroke-width="2" style="mix-blend-mode:soft-light"/>
<path d="M347 140L359 128" stroke="#e6ecfa" stroke-width="2" style="mix-blend-mode:soft-light"/>
<path d="M374 140L386 128" stroke="#e6ecfa" stroke-width="2" style="mix-blend-mode:soft-light"/>
<path d="M401 140L413 128" stroke="#e6ecfa" stroke-width="2" style="mix-blend-mode:soft-light"/>
<path d="M428 140L440 128" stroke="#e6ecfa" stroke-width="2" style="mix-blend-mode:soft-light"/>
<path d="M-4 172L8 160" stroke="#e6ecfa" stroke-width="2" style="mix-blend-mode:soft-light"/>
<path d="M23 172L35 160" stroke="#e6ecfa" stroke-width="2" style="mix-blend-mode:soft-light"/>
<path d="M50 172L62 160" stroke="#e6ecfa" stroke-width="2" style="mix-blend-mode:soft-light"/>
<path d="M77 172L89 160" stroke="#e6ecfa" stroke-width="2" style="mix-blend-mode:soft-light"/>
<path d="M104 172L116 160" stroke="#e6ecfa" stroke-width="2" style="mix-blend-mode:soft-light"/>
<path d="M131 172L143 160" stroke="#e6ecfa" stroke-width="2" style="mix-blend-mode:soft-light"/>
<path d="M158 172L170 160" stroke="#e6ecfa" stroke-width="2" style="mix-blend-mode:soft-light"/>
<path d="M185 172L197 160" stroke="#e6ecfa" stroke-width="2" style="mix-blend-mode:soft-light"/>
<path d="M212 172L224 160" stroke="#e6ecfa" stroke-width="2" style="mix-blend-mode:soft-light"/>
<path d="M239 172L251 160" stroke="#e6ecfa" stroke-width="2" style="mix-blend-mode:soft-light"/>
<path d="M266 172L278 160" stroke="#e6ecfa" stroke-width="2" style="mix-blend-mode:soft-light"/>
<path d="M293 172L305 160" stroke="#e6ecfa" stroke-width="2" style="mix-blend-mode:soft-light"/>
<path d="M320 172L332 160" stroke="#e6ecfa" stroke-width="2" style="mix-blend-mode:soft-light"/>
<path d="M347 172L359 160" stroke="#e6ecfa" stroke-width="2" style="mix-blend-mode:soft-light"/>
<path d="M374 172L386 160" stroke="#e6ecfa" stroke-width="2" style="mix-blend-mode:soft-light"/>
<path d="M401 172L413 160" stroke="#e6ecfa" stroke-width="2" style="mix-blend-mode:soft-light"/>
<path d="M428 172L440 160" stroke="#e6ecfa" stroke-width="2" style="mix-blend-mode:soft-light"/>
<path d="M-4 204L8 192" stroke="#e6ecfa" stroke-width="2" style="mix-blend-mode:soft-light"/>
<path d="M23 204L35 192" stroke="#e6ecfa" stroke-width="2" style="mix-blend-mode:soft-light"/>
<path d="M50 204L62 192" stroke="#e6ecfa" stroke-width="2" style="mix-blend-mode:soft-light"/>
<path d="M77 204L89 192" stroke="#e6ecfa" stroke-width="2" style="mix-blend-mode:soft-light"/>
<path d="M104 204L116 192" stroke="#e6ecfa" stroke-width="2" style="mix-blend-mode:soft-light"/>
<path d="M131 204L143 192" stroke="#e6ecfa" stroke-width="2" style="mix-blend-mode:soft-light"/>
<path d="M158 204L170 192" stroke="#e6ecfa" stroke-width="2" style="mix-blend-mode:soft-light"/>
<path d="M185 204L197 192" stroke="#e6ecfa" stroke-width="2" style="mix-blend-mode:soft-light"/>
<path d="M212 204L224 192" stroke="#e6ecfa" stroke-width="2" style="mix-blend-mode:soft-light"/>
<path d="M239 204L251 192" stroke="#e6ecfa" stroke-width="2" style="mix-blend-mode:soft-light"/>
<path d="M266 204L278 192" stroke="#e6ecfa" stroke-width="2" style="mix-blend-mode:soft-light"/>
<path d="M293 204L305 192" stroke="#e6ecfa" stroke-width="2" style="mix-blend-mode:soft-light"/>
<path d="M320 204L332 192" stroke="#e6ecfa" stroke-width="2" style="mix-blend-mode:soft-light"/>
<path d="M347 204L359 192" stroke="#e6ecfa" stroke-width="2" style="mix-blend-mode:soft-light"/>
<path d="M374 204L386 192" stroke="#e6ecfa" stroke-width="2" style="mix-blend-mode:soft-light"/>
<path d="M401 204L413 192" stroke="#e6ecfa" stroke-width="2" style="mix-blend-mode:soft-light"/>
<path d="M428 204L440 192" stroke="#e6ecfa" stroke-width="2" style="mix-blend-mode:soft-light"/>
<path d="M-4 236L8 224" stroke="#e6ecfa" stroke-width="2" style="mix-blend-mode:soft-light"/>
<path d="M23 236L35 224" stroke="#e6ecfa" stroke-width="2" style="mix-blend-mode:soft-light"/>
<path d="M50 236L62 224" stroke="#e6ecfa" stroke-width="2" style="mix-blend-mode:soft-light"/>
<path d="M77 236L89 224" stroke="#e6ecfa" stroke-width="2" style="mix-blend-mode:soft-light"/>
<path d="M104 236L116 224" stroke="#e6ecfa" stroke-width="2" style="mix-blend-mode:soft-light"/>
<path d="M131 236L143 224" stroke="#e6ecfa" stroke-width="2" style="mix-blend-mode:soft-light"/>
<path d="M158 236L170 224" stroke="#e6ecfa" stroke-width="2" style="mix-blend-mode:soft-light"/>
<path d="M185 236L197 224" stroke="#e6ecfa" stroke-width="2" style="mix-blend-mode:soft-light"/>
<path d="M212 236L224 224" stroke="#e6ecfa" stroke-width="2" style="mix-blend-mode:soft-light"/>
<path d="M239 236L251 224" stroke="#e6ecfa" stroke-width="2" style="mix-blend-mode:soft-light"/>
<path d="M266 236L278 224" stroke="#e6ecfa" stroke-width="2" style="mix-blend-mode:soft-light"/>
<path d="M293 236L305 224" stroke="#e6ecfa" stroke-width="2" style="mix-blend-mode:soft-light"/>
<path d="M320 236L332 224" stroke="#e6ecfa" stroke-width="2" style="mix-blend-mode:soft-light"/>
<path d="M347 236L359 224" stroke="#e6ecfa" stroke-width="2" style="mix-blend-mode:soft-light"/>
<path d="M374 236L386 224" stroke="#e6ecfa" stroke-width="2" style="mix-blend-mode:soft-light"/>
<path d="M401 236L413 224" stroke="#e6ecfa" stroke-width="2" style="mix-blend-mode:soft-light"/>
<path d="M428 236L440 224" stroke="#e6ecfa" stroke-width="2" style="mix-blend-mode:soft-light"/>
<path d="M-4 268L8 256" stroke="#e6ecfa" stroke-width="2" style="mix-blend-mode:soft-light"/>
<path d="M23 268L35 256" stroke="#e6ecfa" stroke-width="2" style="mix-blend-mode:soft-light"/>
<path d="M50 268L62 256" stroke="#e6ecfa" stroke-width="2" style="mix-blend-mode:soft-light"/>
<path d="M77 268L89 256" stroke="#e6ecfa" stroke-width="2" style="mix-blend-mode:soft-light"/>
<path d="M104 268L116 256" stroke="#e6ecfa" stroke-width="2" style="mix-blend-mode:soft-light"/>
<path d="M131 268L143 256" stroke="#e6ecfa" stroke-width="2" style="mix-blend-mode:soft-light"/>
<path d="M158 268L170 256" stroke="#e6ecfa" stroke-width="2" style="mix-blend-mode:soft-light"/>
<path d="M185 268L197 256" stroke="#e6ecfa" stroke-width="2" style="mix-blend-mode:soft-light"/>
<path d="M212 268L224 256" stroke="#e6ecfa" stroke-width="2" style="mix-blend-mode:soft-light"/>
<path d="M239 268L251 256" stroke="#e6ecfa" stroke-width="2" style="mix-blend-mode:soft-light"/>
<path d="M266 268L278 256" stroke="#e6ecfa" stroke-width="2" style="mix-blend-mode:soft-light"/>
<path d="M293 268L305 256" stroke="#e6ecfa" stroke-width="2" style="mix-blend-mode:soft-light"/>
<path d="M320 268L332 256" stroke="#e6ecfa" stroke-width="2" style="mix-blend-mode:soft-light"/>
<path d="M347 268L359 256" stroke="#e6ecfa" stroke-width="2" style="mix-blend-mode:soft-light"/>
<path d="M374 268L386 256" stroke="#e6ecfa" stroke-width="2" style="mix-blend-mode:soft-light"/>
<path d="M401 268L413 256" stroke="#e6ecfa" stroke-width="2" style="mix-blend-mode:soft-light"/>
<path d="M428 268L440 256" stroke="#e6ecfa" stroke-width="2" style="mix-blend-mode:soft-light"/>
<path d="M-4 300L8 288" stroke="#e6ecfa" stroke-width="2" style="mix-blend-mode:soft-light"/>
<path d="M23 300L35 288" stroke="#e6ecfa" stroke-width="2" style="mix-blend-mode:soft-light"/>
<path d="M50 300L62 288" stroke="#e6ecfa" stroke-width="2" style="mix-blend-mode:soft-light"/>
<path d="M77 300L89 288" stroke="#e6ecfa" stroke-width="2" style="mix-blend-mode:soft-light"/>
<path d="M104 300L116 288" stroke="#e6ecfa" stroke-width="2" style="mix-blend-mode:soft-light"/>
<path d="M131 300L143 288" stroke="#e6ecfa" stroke-width="2" style="mix-blend-mode:soft-light"/>
<path d="M158 300L170 288" stroke="#e6ecfa" stroke-width="2" style="mix-blend-mode:soft-light"/>
<path d="M185 300L197 288" stroke="#e6ecfa" stroke-width="2" style="mix-blend-mode:soft-light"/>
<path d="M212 300L224 288" stroke="#e6ecfa" stroke-width="2" style="mix-blend-mode:soft-light"/>
<path d="M239 300L251 288" stroke="#e6ecfa" stroke-width="2" style="mix-blend-mode:soft-light"/>
<path d="M266 300L278 288" stroke="#e6ecfa" stroke-width="2" style="mix-blend-mode:soft-light"/>
<path d="M293 300L305 288" stroke="#e6ecfa" stroke-width="2" style="mix-blend-mode:soft-light"/>
<path d="M320 300L332 288" stroke="#e6ecfa" stroke-width="2" style="mix-blend-mode:soft-light"/>
<path d="M347 300L359 288" stroke="#e6ecfa" stroke-width="2" style="mix-blend-mode:soft-light"/>
<path d="M374 300L386 288" stroke="#e6ecfa" stroke-width="2" style="mix-blend-mode:soft-light"/>
<path d="M401 300L413 288" stroke="#e6ecfa" stroke-width="2" style="mix-blend-mode:soft-light"/>
<path d="M428 300L440 288" stroke="#e6ecfa" stroke-width="2" style="mix-blend-mode:soft-light"/>
<path d="M-4 332L8 320" stroke="#e6ecfa" stroke-width="2" style="mix-blend-mode:soft-light"/>
<path d="M23 332L35 320" stroke="#e6ecfa" stroke-width="2" style="mix-blend-mode:soft-light"/>
<path d="M50 332L62 320" stroke="#e6ecfa" stroke-width="2" style="mix-blend-mode:soft-light"/>
<path d="M77 332L89 320" stroke="#e6ecfa" stroke-width="2" style="mix-blend-mode:soft-light"/>
<path d="M104 332L116 320" stroke="#e6ecfa" stroke-width="2" style="mix-blend-mode:soft-light"/>
<path d="M131 332L143 320" stroke="#e6ecfa" stroke-width="2" style="mix-blend-mode:soft-light"/>
<path d="M158 332L170 320" stroke="#e6ecfa" stroke-width="2" style="mix-blend-mode:soft-light"/>
<path d="M185 332L197 320" stroke="#e6ecfa" stroke-width="2" style="mix-blend-mode:soft-light"/>
<path d="M212 332L224 320" stroke="#e6ecfa" stroke-width="2" style="mix-blend-mode:soft-light"/>
<path d="M239 332L251 320" stroke="#e6ecfa" stroke-width="2" style="mix-blend-mode:soft-light"/>
<path d="M266 332L278 320" stroke="#e6ecfa" stroke-width="2" style="mix-blend-mode:soft-light"/>
<path d="M293 332L305 320" stroke="#e6ecfa" stroke-width="2" style="mix-blend-mode:soft-light"/>
<path d="M320 332L332 320" stroke="#e6ecfa" stroke-width="2" style="mix-blend-mode:soft-light"/>
<path d="M347 332L359 320" stroke="#e6ecfa" stroke-width="2" style="mix-blend-mode:soft-light"/>
<path d="M374 332L386 320" stroke="#e6ecfa" stroke-width="2" style="mix-blend-mode:soft-light"/>
<path d="M401 332L413 320" stroke="#e6ecfa" stroke-width="2" style="mix-blend-mode:soft-light"/>
<path d="M428 332L440 320" stroke="#e6ecfa" stroke-width="2" style="mix-blend-mode:soft-light"/>
<path d="M-4 364L8 352" stroke="#e6ecfa" stroke-width="2" style="mix-blend-mode:soft-light"/>
<path d="M23 364L35 352" stroke="#e6ecfa" stroke-width="2" style="mix-blend-mode:soft-light"/>
<path d="M50 364L62 352" stroke="#e6ecfa" stroke-width="2" style="mix-blend-mode:soft-light"/>
<path d="M77 364L89 352" stroke="#e6ecfa" stroke-width="2" style="mix-blend-mode:soft-light"/>
<path d="M104 364L116 352" stroke="#e6ecfa" stroke-width="2" style="mix-blend-mode:soft-light"/>
<path d="M131 364L143 352" stroke="#e6ecfa" stroke-width="2" style="mix-blend-mode:soft-light"/>
<path d="M158 364L170 352" stroke="#e6ecfa" stroke-width="2" style="mix-blend-mode:soft-light"/>
<path d="M185 364L197 352" stroke="#e6ecfa" stroke-width="2" style="mix-blend-mode:soft-light"/>
<path d="M212 364L224 352" stroke="#e6ecfa" stroke-width="2" style="mix-blend-mode:soft-light"/>
<path d="M239 364L251 352" stroke="#e6ecfa" stroke-width="2" style="mix-blend-mode:soft-light"/>
<path d="M266 364L278 352" stroke="#e6ecfa" stroke-width="2" style="mix-blend-mode:soft-light"/>
<path d="M293 364L305 352" stroke="#e6ecfa" stroke-width="2" style="mix-blend-mode:soft-light"/>
<path d="M320 364L332 352" stroke="#e6ecfa" stroke-width="2" style="mix-blend-mode:soft-light"/>
<path d="M347 364L359 352" stroke="#e6ecfa" stroke-width="2" style="mix-blend-mode:soft-light"/>
<path d="M374 364L386 352" stroke="#e6ecfa" stroke-width="2" style="mix-blend-mode:soft-light"/>
<path d="M401 364L413 352" stroke="#e6ecfa" stroke-width="2" style="mix-blend-mode:soft-light"/>
<path d="M428 364L440 352" stroke="#e6ecfa" stroke-width="2" style="mix-blend-mode:soft-light"/>
<path d="M-4 396L8 384" stroke="#e6ecfa" stroke-width="2" style="mix-blend-mode:soft-light"/>
<path d="M23 396L35 384" stroke="#e6ecfa" stroke-width="2" style="mix-blend-mode:soft-light"/>
<path d="M50 396L62 384" stroke="#e6ecfa" stroke-width="2" style="mix-blend-mode:soft-light"/>
<path d="M77 396L89 384" stroke="#e6ecfa" stroke-width="2" style="mix-blend-mode:soft-light"/>
<path d="M104 396L116 384" stroke="#e6ecfa" stroke-width="2" style="mix-blend-mode:soft-light"/>
<path d="M131 396L143 384" stroke="#e6ecfa" stroke-width="2" style="mix-blend-mode:soft-light"/>
<path d="M158 396L170 384" stroke="#e6ecfa" stroke-width="2" style="mix-blend-mode:soft-light"/>
<path d="M185 396L197 384" stroke="#e6ecfa" stroke-width="2" style="mix-blend-mode:soft-light"/>
<path d="M212 396L224 384" stroke="#e6ecfa" stroke-width="2" style="mix-blend-mode:soft-light"/>
<path d="M239 396L251 384" stroke="#e6ecfa" stroke-width="2" style="mix-blend-mode:soft-light"/>
<path d="M266 396L278 384" stroke="#e6ecfa" stroke-width="2" style="mix-blend-mode:soft-light"/>
<path d="M293 396L305 384" stroke="#e6ecfa" stroke-width="2" style="mix-blend-mode:soft-light"/>
<path d="M320 396L332 384" stroke="#e6ecfa" stroke-width="2" style="mix-blend-mode:soft-light"/>
<path d="M347 396L359 384" stroke="#e6ecfa" stroke-width="2" style="mix-blend-mode:soft-light"/>
<path d="M374 396L386 384" stroke="#e6ecfa" stroke-width="2" style="mix-blend-mode:soft-light"/>
<path d="M401 396L413 384" stroke="#e6ecfa" stroke-width="2" style="mix-blend-mode:soft-light"/>
<path d="M428 396L440 384" stroke="#e6ecfa" stroke-width="2" style="mix-blend-mode:soft-light"/>
<path d="M-4 428L8 416" stroke="#e6ecfa" stroke-width="2" style="mix-blend-mode:soft-light"/>
<path d="M23 428L35 416" stroke="#e6ecfa" stroke-width="2" style="mix-blend-mode:soft-light"/>
<path d="M50 428L62 416" stroke="#e6ecfa" stroke-width="2" style="mix-blend-mode:soft-light"/>
<path d="M77 428L89 416" stroke="#e6ecfa" stroke-width="2" style="mix-blend-mode:soft-light"/>
<path d="M104 428L116 416" stroke="#e6ecfa" stroke-width="2" style="mix-blend-mode:soft-light"/>
<path d="M131 428L143 416" stroke="#e6ecfa" stroke-width="2" style="mix-blend-mode:soft-light"/>
<path d="M158 428L170 416" stroke="#e6ecfa" stroke-width="2" style="mix-blend-mode:soft-light"/>
<path d="M185 428L197 416" stroke="#e6ecfa" stroke-width="2" style="mix-blend-mode:soft-light"/>
<path d="M212 428L224 416" stroke="#e6ecfa" stroke-width="2" style="mix-blend-mode:soft-light"/>
<path d="M239 428L251 416" stroke="#e6ecfa" stroke-width="2" style="mix-blend-mode:soft-light"/>
<path d="M266 428L278 416" stroke="#e6ecfa" stroke-width="2" style="mix-blend-mode:soft-light"/>
<path d="M293 428L305 416" stroke="#e6ecfa" stroke-width="2" style="mix-blend-mode:soft-light"/>
<path d="M320 428L332 416" stroke="#e6ecfa" stroke-width="2" style="mix-blend-mode:soft-light"/>
<path d="M347 428L359 416" stroke="#e6ecfa" stroke-width="2" style="mix-blend-mode:soft-light"/>
<path d="M374 428L386 416" stroke="#e6ecfa" stroke-width="2" style="mix-blend-mode:soft-light"/>
<path d="M401 428L413 416" stroke="#e6ecfa" stroke-width="2" style="mix-blend-mode:soft-light"/>
<path d="M428 428L440 416" stroke="#e6ecfa" stroke-width="2" style="mix-blend-mode:soft-light"/>
<path d="M-4 460L8 448" stroke="#e6ecfa" stroke-width="2" style="mix-blend-mode:soft-light"/>
<path d="M23 460L35 448" stroke="#e6ecfa" stroke-width="2" style="mix-blend-mode:soft-light"/>
<path d="M50 460L62 448" stroke="#e6ecfa" stroke-width="2" style="mix-blend-mode:soft-light"/>
<path d="M77 460L89 448" stroke="#e6ecfa" stroke-width="2" style="mix-blend-mode:soft-light"/>
<path d="M104 460L116 448" stroke="#e6ecfa" stroke-width="2" style="mix-blend-mode:soft-light"/>
<path d="M131 460L143 448" stroke="#e6ecfa" stroke-width="2" style="mix-blend-mode:soft-light"/>
<path d="M158 460L170 448" stroke="#e6ecfa" stroke-width="2" style="mix-blend-mode:soft-light"/>
<path d="M185 460L197 448" stroke="#e6ecfa" stroke-width="2" style="mix-blend-mode:soft-light"/>
<path d="M212 460L224 448" stroke="#e6ecfa" stroke-width="2" style="mix-blend-mode:soft-light"/>
<path d="M239 460L251 448" stroke="#e6ecfa" stroke-width="2" style="mix-blend-mode:soft-light"/>
<path d="M266 460L278 448" stroke="#e6ecfa" stroke-width="2" style="mix-blend-mode:soft-light"/>
<path d="M293 460L305 448" stroke="#e6ecfa" stroke-width="2" style="mix-blend-mode:soft-light"/>
<path d="M320 460L332 448" stroke="#e6ecfa" stroke-width="2" style="mix-blend-mode:soft-light"/>
<path d="M347 460L359 448" stroke="#e6ecfa" stroke-width="2" style="mix-blend-mode:soft-light"/>
<path d="M374 460L386 448" stroke="#e6ecfa" stroke-width="2" style="mix-blend-mode:soft-light"/>
<path d="M401 460L413 448" stroke="#e6ecfa" stroke-width="2" style="mix-blend-mode:soft-light"/>
<path d="M428 460L440 448" stroke="#e6ecfa" stroke-width="2" style="mix-blend-mode:soft-light"/>
<path d="M-4 492L8 480" stroke="#e6ecfa" stroke-width="2" style="mix-blend-mode:soft-light"/>
<path d="M23 492L35 480" stroke="#e6ecfa" stroke-width="2" style="mix-blend-mode:soft-light"/>
<path d="M50 492L62 480" stroke="#e6ecfa" stroke-width="2" style="mix-blend-mode:soft-light"/>
<path d="M77 492L89 480" stroke="#e6ecfa" stroke-width="2" style="mix-blend-mode:soft-light"/>
<path d="M104 492L116 480" stroke="#e6ecfa" stroke-width="2" style="mix-blend-mode:soft-light"/>
<path d="M131 492L143 480" stroke="#e6ecfa" stroke-width="2" style="mix-blend-mode:soft-light"/>
<path d="M158 492L170 480" stroke="#e6ecfa" stroke-width="2" style="mix-blend-mode:soft-light"/>
<path d="M185 492L197 480" stroke="#e6ecfa" stroke-width="2" style="mix-blend-mode:soft-light"/>
<path d="M212 492L224 480" stroke="#e6ecfa" stroke-width="2" style="mix-blend-mode:soft-light"/>
<path d="M239 492L251 480" stroke="#e6ecfa" stroke-width="2" style="mix-blend-mode:soft-light"/>
<path d="M266 492L278 480" stroke="#e6ecfa" stroke-width="2" style="mix-blend-mode:soft-light"/>
<path d="M293 492L305 480" stroke="#e6ecfa" stroke-width="2" style="mix-blend-mode:soft-light"/>
<path d="M320 492L332 480" stroke="#e6ecfa" stroke-width="2" style="mix-blend-mode:soft-light"/>
<path d="M347 492L359 480" stroke="#e6ecfa" stroke-width="2" style="mix-blend-mode:soft-light"/>
<path d="M374 492L386 480" stroke="#e6ecfa" stroke-width="2" style="mix-blend-mode:soft-light"/>
<path d="M401 492L413 480" stroke="#e6ecfa" stroke-width="2" style="mix-blend-mode:soft-light"/>
<path d="M428 492L440 480" stroke="#e6ecfa" stroke-width="2" style="mix-blend-mode:soft-light"/>
<path d="M-4 524L8 512" stroke="#e6ecfa" stroke-width="2" style="mix-blend-mode:soft-light"/>
<path d="M23 524L35 512" stroke="#e6ecfa" stroke-width="2" style="mix-blend-mode:soft-light"/>
<path d="M50 524L62 512" stroke="#e6ecfa" stroke-width="2" style="mix-blend-mode:soft-light"/>
<path d="M77 524L89 512" stroke="#e6ecfa" stroke-width="2" style="mix-blend-mode:soft-light"/>
<path d="M104 524L116 512" stroke="#e6ecfa" stroke-width="2" style="mix-blend-mode:soft-light"/>
<path d="M131 524L143 512" stroke="#e6ecfa" stroke-width="2" style="mix-blend-mode:soft-light"/>
<path d="M158 524L170 512" stroke="#e6ecfa" stroke-width="2" style="mix-blend-mode:soft-light"/>
<path d="M185 524L197 512" stroke="#e6ecfa" stroke-width="2" style="mix-blend-mode:soft-light"/>
<path d="M212 524L224 512" stroke="#e6ecfa" stroke-width="2" style="mix-blend-mode:soft-light"/>
<path d="M239 524L251 512" stroke="#e6ecfa" stroke-width="2" style="mix-blend-mode:soft-light"/>
<path d="M266 524L278 512" stroke="#e6ecfa" stroke-width="2" style="mix-blend-mode:soft-light"/>
<path d="M293 524L305 512" stroke="#e6ecfa" stroke-width="2" style="mix-blend-mode:soft-light"/>
<path d="M320 524L332 512" stroke="#e6ecfa" stroke-width="2" style="mix-blend-mode:soft-light"/>
<path d="M347 524L359 512" stroke="#e6ecfa" stroke-width="2" style="mix-blend-mode:soft-light"/>
<path d="M374 524L386 512" stroke="#e6ecfa" stroke-width="2" style="mix-blend-mode:soft-light"/>
<path d="M401 524L413 512" stroke="#e6ecfa" stroke-width="2" style="mix-blend-mode:soft-light"/>
<path d="M428 524L440 512" stroke="#e6ecfa" stroke-width="2" style="mix-blend-mode:soft-light"/>
<path d="M-4 556L8 544" stroke="#e6ecfa" stroke-width="2" style="mix-blend-mode:soft-light"/>
<path d="M23 556L35 544" stroke="#e6ecfa" stroke-width="2" style="mix-blend-mode:soft-light"/>
<path d="M50 556L62 544" stroke="#e6ecfa" stroke-width="2" style="mix-blend-mode:soft-light"/>
<path d="M77 556L89 544" stroke="#e6ecfa" stroke-width="2" style="mix-blend-mode:soft-light"/>
<path d="M104 556L116 544" stroke="#e6ecfa" stroke-width="2" style="mix-blend-mode:soft-light"/>
<path d="M131 556L143 544" stroke="#e6ecfa" stroke-width="2" style="mix-blend-mode:soft-light"/>
<path d="M158 556L170 544" stroke="#e6ecfa" stroke-width="2" style="mix-blend-mode:soft-light"/>
<path d="M185 556L197 544" stroke="#e6ecfa" stroke-width="2" style="mix-blend-mode:soft-light"/>
<path d="M212 556L224 544" stroke="#e6ecfa" stroke-width="2" style="mix-blend-mode:soft-light"/>
<path d="M239 556L251 544" stroke="#e6ecfa" stroke-width="2" style="mix-blend-mode:soft-light"/>
<path d="M266 556L278 544" stroke="#e6ecfa" stroke-width="2" style="mix-blend-mode:soft-light"/>
<path d="M293 556L305 544" stroke="#e6ecfa" stroke-width="2" style="mix-blend-mode:soft-light"/>
<path d="M320 556L332 544" stroke="#e6ecfa" stroke-width="2" style="mix-blend-mode:soft-light"/>
<path d="M347 556L359 544" stroke="#e6ecfa" stroke-width="2" style="mix-blend-mode:soft-light"/>
<path d="M374 556L386 544" stroke="#e6ecfa" stroke-width="2" style="mix-blend-mode:soft-light"/>
<path d="M401 556L413 544" stroke="#e6ecfa" stroke-width="2" style="mix-blend-mode:soft-light"/>
<path d="M428 556L440 544" stroke="#e6ecfa" stroke-width="2" style="mix-blend-mode:soft-light"/>
<path d="M-4 588L8 576" stroke="#e6ecfa" stroke-width="2" style="mix-blend-mode:soft-light"/>
<path d="M23 588L35 576" stroke="#e6ecfa" stroke-width="2" style="mix-blend-mode:soft-light"/>
<path d="M50 588L62 576" stroke="#e6ecfa" stroke-width="2" style="mix-blend-mode:soft-light"/>
<path d="M77 588L89 576" stroke="#e6ecfa" stroke-width="2" style="mix-blend-mode:soft-light"/>
<path d="M104 588L116 576" stroke="#e6ecfa" stroke-width="2" style="mix-blend-mode:soft-light"/>
<path d="M131 588L143 576" stroke="#e6ecfa" stroke-width="2" style="mix-blend-mode:soft-light"/>
<path d="M158 588L170 576" stroke="#e6ecfa" stroke-width="2" style="mix-blend-mode:soft-light"/>
<path d="M185 588L197 576" stroke="#e6ecfa" stroke-width="2" style="mix-blend-mode:soft-light"/>
<path d="M212 588L224 576" stroke="#e6ecfa" stroke-width="2" style="mix-blend-mode:soft-light"/>
<path d="M239 588L251 576" stroke="#e6ecfa" stroke-width="2" style="mix-blend-mode:soft-light"/>
<path d="M266 588L278 576" stroke="#e6ecfa" stroke-width="2" style="mix-blend-mode:soft-light"/>
<path d="M293 588L305 576" stroke="#e6ecfa" stroke-width="2" style="mix-blend-mode:soft-light"/>
<path d="M320 588L332 576" stroke="#e6ecfa" stroke-width="2" style="mix-blend-mode:soft-light"/>
<path d="M347 588L359 576" stroke="#e6ecfa" stroke-width="2" style="mix-blend-mode:soft-light"/>
<path d="M374 588L386 576" stroke="#e6ecfa" stroke-width="2" style="mix-blend-mode:soft-light"/>
<path d="M401 588L413 576" stroke="#e6ecfa" stroke-width="2" style="mix-blend-mode:soft-light"/>
<path d="M428 588L440 576" stroke="#e6ecfa" stroke-width="2" style="mix-blend-mode:soft-light"/>
<path d="M-4 620L8 608" stroke="#e6ecfa" stroke-width="2" style="mix-blend-mode:soft-light"/>
<path d="M23 620L35 608" stroke="#e6ecfa" stroke-width="2" style="mix-blend-mode:soft-light"/>
<path d="M50 620L62 608" stroke="#e6ecfa" stroke-width="2" style="mix-blend-mode:soft-light"/>
<path d="M77 620L89 608" stroke="#e6ecfa" stroke-width="2" style="mix-blend-mode:soft-light"/>
<path d="M104 620L116 608" stroke="#e6ecfa" stroke-width="2" style="mix-blend-mode:soft-light"/>
<path d="M131 620L143 608" stroke="#e6ecfa" stroke-width="2" style="mix-blend-mode:soft-light"/>
<path d="M158 620L170 608" stroke="#e6ecfa" stroke-width="2" style="mix-blend-mode:soft-light"/>
<path d="M185 620L197 608" stroke="#e6ecfa" stroke-width="2" style="mix-blend-mode:soft-light"/>
<path d="M212 620L224 608" stroke="#e6ecfa" stroke-width="2" style="mix-blend-mode:soft-light"/>
<path d="M239 620L251 608" stroke="#e6ecfa" stroke-width="2" style="mix-blend-mode:soft-light"/>
<path d="M266 620L278 608" stroke="#e6ecfa" stroke-width="2" style="mix-blend-mode:soft-light"/>
<path d="M293 620L305 608" stroke="#e6ecfa" stroke-width="2" style="mix-blend-mode:soft-light"/>
<path d="M320 620L332 608" stroke="#e6ecfa" stroke-width="2" style="mix-blend-mode:soft-light"/>
<path d="M347 620L359 608" stroke="#e6ecfa" stroke-width="2" style="mix-blend-mode:soft-light"/>
<path d="M374 620L386 608" stroke="#e6ecfa" stroke-width="2" style="mix-blend-mode:soft-light"/>
<path d="M401 620L413 608" stroke="#e6ecfa" stroke-width="2" style="mix-blend-mode:soft-light"/>
<path d="M428 620L440 608" stroke="#e6ecfa" stroke-width="2" style="mix-blend-mode:soft-light"/>
<path d="M-4 652L8 640" stroke="#e6ecfa" stroke-width="2" style="mix-blend-mode:soft-light"/>
<path d="M23 652L35 640" stroke="#e6ecfa" stroke-width="2" style="mix-blend-mode:soft-light"/>
<path d="M50 652L62 640" stroke="#e6ecfa" stroke-width="2" style="mix-blend-mode:soft-light"/>
<path d="M77 652L89 640" stroke="#e6ecfa" stroke-width="2" style="mix-blend-mode:soft-light"/>
<path d="M104 652L116 640" stroke="#e6ecfa" stroke-width="2" style="mix-blend-mode:soft-light"/>
<path d="M131 652L143 640" stroke="#e6ecfa" stroke-width="2" style="mix-blend-mode:soft-light"/>
<path d="M158 652L170 640" stroke="#e6ecfa" stroke-width="2" style="mix-blend-mode:soft-light"/>
<path d="M185 652L197 640" stroke="#e6ecfa" stroke-width="2" style="mix-blend-mode:soft-light"/>
<path d="M212 652L224 640" stroke="#e6ecfa" stroke-width="2" style="mix-blend-mode:soft-light"/>
<path d="M239 652L251 640" stroke="#e6ecfa" stroke-width="2" style="mix-blend-mode:soft-light"/>
<path d="M266 652L278 640" stroke="#e6ecfa" stroke-width="2" style="mix-blend-mode:soft-light"/>
<path d="M293 652L305 640" stroke="#e6ecfa" stroke-width="2" style="mix-blend-mode:soft-light"/>
<path d="M320 652L332 640" stroke="#e6ecfa" stroke-width="2" style="mix-blend-mode:soft-light"/>
<path d="M347 652L359 640" stroke="#e6ecfa" stroke-width="2" style="mix-blend-mode:soft-light"/>
<path d="M374 652L386 640" stroke="#e6ecfa" stroke-width="2" style="mix-blend-mode:soft-light"/>
<path d="M401 652L413 640" stroke="#e6ecfa" stroke-width="2" style="mix-blend-mode:soft-light"/>
<path d="M428 652L440 640" stroke="#e6ecfa" stroke-width="2" style="mix-blend-mode:soft-light"/>
<path d="M-4 684L8 672" stroke="#e6ecfa" stroke-width="2" style="mix-blend-mode:soft-light"/>
<path d="M23 684L35 672" stroke="#e6ecfa" stroke-width="2" style="mix-blend-mode:soft-light"/>
<path d="M50 684L62 672" stroke="#e6ecfa" stroke-width="2" style="mix-blend-mode:soft-light"/>
<path d="M77 684L89 672" stroke="#e6ecfa" stroke-width="2" style="mix-blend-mode:soft-light"/>
<path d="M104 684L116 672" stroke="#e6ecfa" stroke-width="2" style="mix-blend-mode:soft-light"/>
<path d="M131 684L143 672" stroke="#e6ecfa" stroke-width="2" style="mix-blend-mode:soft-light"/>
<path d="M158 684L170 672" stroke="#e6ecfa" stroke-width="2" style="mix-blend-mode:soft-light"/>
<path d="M185 684L197 672" stroke="#e6ecfa" stroke-width="2" style="mix-blend-mode:soft-light"/>
<path d="M212 684L224 672" stroke="#e6ecfa" stroke-width="2" style="mix-blend-mode:soft-light"/>
<path d="M239 684L251 672" stroke="#e6ecfa" stroke-width="2" style="mix-blend-mode:soft-light"/>
<path d="M266 684L278 672" stroke="#e6ecfa" stroke-width="2" style="mix-blend-mode:soft-light"/>
<path d="M293 684L305 672" stroke="#e6ecfa" stroke-width="2" style="mix-blend-mode:soft-light"/>
<path d="M320 684L332 672" stroke="#e6ecfa" stroke-width="2" style="mix-blend-mode:soft-light"/>
<path d="M347 684L359 672" stroke="#e6ecfa" stroke-width="2" style="mix-blend-mode:soft-light"/>
<path d="M374 684L386 672" stroke="#e6ecfa" stroke-width="2" style="mix-blend-mode:soft-light"/>
<path d="M401 684L413 672" stroke="#e6ecfa" stroke-width="2" style="mix-blend-mode:soft-light"/>
<path d="M428 684L440 672" stroke="#e6ecfa" stroke-width="2" style="mix-blend-mode:soft-light"/>
<path d="M-4 716L8 704" stroke="#e6ecfa" stroke-width="2" style="mix-blend-mode:soft-light"/>
<path d="M23 716L35 704" stroke="#e6ecfa" stroke-width="2" style="mix-blend-mode:soft-light"/>
<path d="M50 716L62 704" stroke="#e6ecfa" stroke-width="2" style="mix-blend-mode:soft-light"/>
<path d="M77 716L89 704" stroke="#e6ecfa" stroke-width="2" style="mix-blend-mode:soft-light"/>
<path d="M104 716L116 704" stroke="#e6ecfa" stroke-width="2" style="mix-blend-mode:soft-light"/>
<path d="M131 716L143 704" stroke="#e6ecfa" stroke-width="2" style="mix-blend-mode:soft-light"/>
<path d="M158 716L170 704" stroke="#e6ecfa" stroke-width="2" style="mix-blend-mode:soft-light"/>
<path d="M185 716L197 704" stroke="#e6ecfa" stroke-width="2" style="mix-blend-mode:soft-light"/>
<path d="M212 716L224 704" stroke="#e6ecfa" stroke-width="2" style="mix-blend-mode:soft-light"/>
<path d="M239 716L251 704" stroke="#e6ecfa" stroke-width="2" style="mix-blend-mode:soft-light"/>
<path d="M266 716L278 704" stroke="#e6ecfa" stroke-width="2" style="mix-blend-mode:soft-light"/>
<path d="M293 716L305 704" stroke="#e6ecfa" stroke-width="2" style="mix-blend-mode:soft-light"/>
<path d="M320 716L332 704" stroke="#e6ecfa" stroke-width="2" style="mix-blend-mode:soft-light"/>
<path d="M347 716L359 704" stroke="#e6ecfa" stroke-width="2" style="mix-blend-mode:soft-light"/>
<path d="M374 716L386 704" stroke="#e6ecfa" stroke-width="2" style="mix-blend-mode:soft-light"/>
<path d="M401 716L413 704" stroke="#e6ecfa" stroke-width="2" style="mix-blend-mode:soft-light"/>
<path d="M428 716L440 704" stroke="#e6ecfa" stroke-width="2" style="mix-blend-mode:soft-light"/>
<path d="M-4 748L8 736" stroke="#e6ecfa" stroke-width="2" style="mix-blend-mode:soft-light"/>
<path d="M23 748L35 736" stroke="#e6ecfa" stroke-width="2" style="mix-blend-mode:soft-light"/>
<path d="M50 748L62 736" stroke="#e6ecfa" stroke-width="2" style="mix-blend-mode:soft-light"/>
<path d="M77 748L89 736" stroke="#e6ecfa" stroke-width="2" style="mix-blend-mode:soft-light"/>
<path d="M104 748L116 736" stroke="#e6ecfa" stroke-width="2" style="mix-blend-mode:soft-light"/>
<path d="M131 748L143 736" stroke="#e6ecfa" stroke-width="2" style="mix-blend-mode:soft-light"/>
<path d="M158 748L170 736" stroke="#e6ecfa" stroke-width="2" style="mix-blend-mode:soft-light"/>
<path d="M185 748L197 736" stroke="#e6ecfa" stroke-width="2" style="mix-blend-mode:soft-light"/>
<path d="M212 748L224 736" stroke="#e6ecfa" stroke-width="2" style="mix-blend-mode:soft-light"/>
<path d="M239 748L251 736" stroke="#e6ecfa" stroke-width="2" style="mix-blend-mode:soft-light"/>
<path d="M266 748L278 736" stroke="#e6ecfa" stroke-width="2" style="mix-blend-mode:soft-light"/>
<path d="M293 748L305 736" stroke="#e6ecfa" stroke-width="2" style="mix-blend-mode:soft-light"/>
<path d="M320 748L332 736" stroke="#e6ecfa" stroke-width="2" style="mix-blend-mode:soft-light"/>
<path d="M347 748L359 736" stroke="#e6ecfa" stroke-width="2" style="mix-blend-mode:soft-light"/>
<path d="M374 748L386 736" stroke="#e6ecfa" stroke-width="2" style="mix-blend-mode:soft-light"/>
<path d="M401 748L413 736" stroke="#e6ecfa" stroke-width="2" style="mix-blend-mode:soft-light"/>
<path d="M428 748L440 736" stroke="#e6ecfa" stroke-width="2" style="mix-blend-mode:soft-light"/>
<path d="M-4 780L8 768" stroke="#e6ecfa" stroke-width="2" style="mix-blend-mode:soft-light"/>
<path d="M23 780L35 768" stroke="#e6ecfa" stroke-width="2" style="mix-blend-mode:soft-light"/>
<path d="M50 780L62 768" stroke="#e6ecfa" stroke-width="2" style="mix-blend-mode:soft-light"/>
<path d="M77 780L89 768" stroke="#e6ecfa" stroke-width="2" style="mix-blend-mode:soft-light"/>
<path d="M104 780L116 768" stroke="#e6ecfa" stroke-width="2" style="mix-blend-mode:soft-light"/>
<path d="M131 780L143 768" stroke="#e6ecfa" stroke-width="2" style="mix-blend-mode:soft-light"/>
<path d="M158 780L170 768" stroke="#e6ecfa" stroke-width="2" style="mix-blend-mode:soft-light"/>
<path d="M185 780L197 768" stroke="#e6ecfa" stroke-width="2" style="mix-blend-mode:soft-light"/>
<path d="M212 780L224 768" stroke="#e6ecfa" stroke-width="2" style="mix-blend-mode:soft-light"/>
<path d="M239 780L251 768" stroke="#e6ecfa" stroke-width="2" style="mix-blend-mode:soft-light"/>
<path d="M266 780L278 768" stroke="#e6ecfa" stroke-width="2" style="mix-blend-mode:soft-light"/>
<path d="M293 780L305 768" stroke="#e6ecfa" stroke-width="2" style="mix-blend-mode:soft-light"/>
<path d="M320 780L332 768" stroke="#e6ecfa" stroke-width="2" style="mix-blend-mode:soft-light"/>
<path d="M347 780L359 768" stroke="#e6ecfa" stroke-width="2" style="mix-blend-mode:soft-light"/>
<path d="M374 780L386 768" stroke="#e6ecfa" stroke-width="2" style="mix-blend-mode:soft-light"/>
<path d="M401 780L413 768" stroke="#e6ecfa" stroke-width="2" style="mix-blend-mode:soft-light"/>
<path d="M428 780L440 768" stroke="#e6ecfa" stroke-width="2" style="mix-blend-mode:soft-light"/>
<path d="M-4 812L8 800" stroke="#e6ecfa" stroke-width="2" style="mix-blend-mode:soft-light"/>
<path d="M23 812L35 800" stroke="#e6ecfa" stroke-width="2" style="mix-blend-mode:soft-light"/>
<path d="M50 812L62 800" stroke="#e6ecfa" stroke-width="2" style="mix-blend-mode:soft-light"/>
<path d="M77 812L89 800" stroke="#e6ecfa" stroke-width="2" style="mix-blend-mode:soft-light"/>
<path d="M104 812L116 800" stroke="#e6ecfa" stroke-width="2" style="mix-blend-mode:soft-light"/>
<path d="M131 812L143 800" stroke="#e6ecfa" stroke-width="2" style="mix-blend-mode:soft-light"/>
<path d="M158 812L170 800" stroke="#e6ecfa" stroke-width="2" style="mix-blend-mode:soft-light"/>
<path d="M185 812L197 800" stroke="#e6ecfa" stroke-width="2" style="mix-blend-mode:soft-light"/>
<path d="M212 812L224 800" stroke="#e6ecfa" stroke-width="2" style="mix-blend-mode:soft-light"/>
<path d="M239 812L251 800" stroke="#e6ecfa" stroke-width="2" style="mix-blend-mode:soft-light"/>
<path d="M266 812L278 800" stroke="#e6ecfa" stroke-width="2" style="mix-blend-mode:soft-light"/>
<path d="M293 812L305 800" stroke="#e6ecfa" stroke-width="2" style="mix-blend-mode:soft-light"/>
<path d="M320 812L332 800" stroke="#e6ecfa" stroke-width="2" style="mix-blend-mode:soft-light"/>
<path d="M347 812L359 800" stroke="#e6ecfa" stroke-width="2" style="mix-blend-mode:soft-light"/>
<path d="M374 812L386 800" stroke="#e6ecfa" stroke-width="2" style="mix-blend-mode:soft-light"/>
<path d="M401 812L413 800" stroke="#e6ecfa" stroke-width="2" style="mix-blend-mode:soft-light"/>
<path d="M428 812L440 800" stroke="#e6ecfa" stroke-width="2" style="mix-blend-mode:soft-light"/>
</g>
<defs>
<clipPath id="clip0_2368_63422">
<rect width="760" height="812" fill="white" transform="translate(-328)"/>
</clipPath>
</defs>
</svg>
