<svg width="38" height="36" viewBox="0 0 38 36" fill="none" xmlns="http://www.w3.org/2000/svg">
<path fill-rule="evenodd" clip-rule="evenodd" d="M0 14C0 11.2386 2.23858 9 5 9H33C35.7614 9 38 11.2386 38 14V22C38 24.7614 35.7614 27 33 27H29V25H33C34.6569 25 36 23.6569 36 22V14C36 12.3431 34.6569 11 33 11H5C3.34315 11 2 12.3431 2 14V22C2 23.6569 3.34315 25 5 25H9V27H5C2.23858 27 0 24.7614 0 22V14Z" fill="white"/>
<path fill-rule="evenodd" clip-rule="evenodd" d="M8 20C8 18.8954 8.89543 18 10 18H28C29.1046 18 30 18.8954 30 20V34C30 35.1046 29.1046 36 28 36H10C8.89543 36 8 35.1046 8 34V20ZM28 20H10V34H28V20Z" fill="white"/>
<path fill-rule="evenodd" clip-rule="evenodd" d="M8 3C8 1.34315 9.34315 0 11 0H27C28.6569 0 30 1.34315 30 3V11H28V3C28 2.44772 27.5523 2 27 2H11C10.4477 2 10 2.44772 10 3V11H8V3Z" fill="white"/>
<path d="M5 14C5 13.4477 5.44772 13 6 13H9C9.55228 13 10 13.4477 10 14C10 14.5523 9.55228 15 9 15H6C5.44772 15 5 14.5523 5 14Z" fill="white"/>
<path d="M12 23C12 22.4477 12.4477 22 13 22H25C25.5523 22 26 22.4477 26 23C26 23.5523 25.5523 24 25 24H13C12.4477 24 12 23.5523 12 23Z" fill="white"/>
<path d="M12 27C12 26.4477 12.4477 26 13 26H25C25.5523 26 26 26.4477 26 27C26 27.5523 25.5523 28 25 28H13C12.4477 28 12 27.5523 12 27Z" fill="white"/>
<path d="M12 31C12 30.4477 12.4477 30 13 30H25C25.5523 30 26 30.4477 26 31C26 31.5523 25.5523 32 25 32H13C12.4477 32 12 31.5523 12 31Z" fill="white"/>
</svg>
