<svg width="24" height="30" viewBox="0 0 24 30" fill="none" xmlns="http://www.w3.org/2000/svg">
<path fill-rule="evenodd" clip-rule="evenodd" d="M16.5888 24.5251V22.067L14.5487 21.9553C12.6895 22.7723 12.0269 23.8766 12.0254 25.1396V27.0391C12.2435 28.8717 13.0423 29.8988 14.5487 29.9441C16.1431 30.0151 17.7525 30.0548 19.4879 29.8323C21.1957 29.6925 21.7893 28.5221 22.226 27.2066L22.2565 27.1167C22.9588 25.0447 23.6611 22.9728 23.6756 20.6145C23.9441 18.2029 24.0144 15.8944 23.9977 13.6313C23.9915 13.3334 23.9855 13.0334 23.9794 12.7334C23.91 9.27623 23.8405 5.819 23.5145 5.69831C23.7735 3.66487 22.3744 3.35684 20.9753 3.04882C20.5133 2.94711 20.0513 2.84539 19.649 2.68156C18.3945 2.41471 16.9074 2.38998 15.4203 2.36526C15.0931 2.35982 14.766 2.35438 14.4413 2.34636C13.8844 0.567056 12.3479 0.271677 11.4348 0.111733L8.80412 0C6.89654 0.0419817 6.47988 1.67305 6.36213 2.13397C6.35031 2.18026 6.3415 2.21474 6.3345 2.23464L6.38818 5.47485C6.47425 6.5725 5.74732 6.68318 4.99231 6.75976L2.25425 6.7039C0.348778 6.7781 -0.18505 7.89898 0.0530631 9.60892C0.279579 11.5105 0.541905 13.4457 0.91206 15.2514C0.974837 15.5334 1.03149 15.8206 1.08814 16.1078C1.41706 17.7753 1.74598 19.4427 3.27431 20.1117C4.01634 20.4074 4.69297 20.518 5.38468 20.6312C5.74698 20.6905 6.11342 20.7504 6.49556 20.8379C6.61317 20.8647 6.72983 20.8915 6.84564 20.918C7.9432 21.1695 8.96417 21.4034 9.98525 21.5083C10.8784 21.5206 11.5243 21.121 11.7032 19.9441C11.7488 19.5032 11.8907 19.1708 12.0583 18.7782C12.1509 18.5615 12.2512 18.3264 12.3475 18.0447C13.1609 19.6892 13.6185 19.8174 14.4823 20.0594C14.6486 20.106 14.83 20.1568 15.0319 20.2234C15.754 20.4631 16.7158 20.556 17.6626 20.5586C18.6995 20.5002 19.2939 22.2339 19.3806 23.2402C19.3985 24.091 19.4163 24.7539 19.4342 25.3072C19.4356 26.5507 19.1314 26.6961 17.6089 26.9273C16.8206 27.0021 16.2314 27.0379 15.6224 26.9273C13.8017 26.6693 14.4631 24.5987 15.7298 24.581L16.5888 24.5251ZM19.8906 14.4692L16.7499 14.4413C16.7575 14.3667 16.764 14.2917 16.7705 14.2166C16.8413 13.3997 16.9121 12.5828 18.3874 12.4302C19.2832 12.435 19.9879 12.7666 19.8906 14.4692Z" fill="white"/>
<path d="M0.509425 6.17317L5.82449 0.698319C5.38117 1.83426 5.56392 3.91991 5.47552 5.47484C5.49888 5.70581 5.3352 5.83945 5.07286 5.92177C3.5539 5.99192 2.09233 5.70374 0.509425 6.17317Z" fill="white"/>
</svg>
