<svg width="32" height="21" viewBox="0 0 32 21" fill="none" xmlns="http://www.w3.org/2000/svg">
<path d="M9.77826 5.9245C11.4734 5.9245 12.8475 4.59826 12.8475 2.96225C12.8475 1.32625 11.4734 0 9.77826 0C8.08316 0 6.70901 1.32625 6.70901 2.96225C6.70901 4.59826 8.08316 5.9245 9.77826 5.9245Z" fill="white"/>
<path d="M22.2426 5.9245C23.9377 5.9245 25.3118 4.59826 25.3118 2.96225C25.3118 1.32625 23.9377 0 22.2426 0C20.5475 0 19.1733 1.32625 19.1733 2.96225C19.1733 4.59826 20.5475 5.9245 22.2426 5.9245Z" fill="white"/>
<path d="M31.7817 17.4119L28.064 11.2649C27.6029 10.5139 26.6087 10.2497 25.8161 10.6947C25.038 11.1397 24.7642 12.0993 25.2253 12.8503L25.7729 13.7404C23.0495 16.1325 19.5768 17.4397 15.8447 17.4397C12.2279 17.4397 8.82722 16.1881 6.13263 13.9212L6.78106 12.8364C7.24217 12.0854 6.96839 11.1119 6.19027 10.6808C5.41215 10.2358 4.40348 10.5 3.94237 11.251L0.224695 17.398C-0.236412 18.149 0.0373699 19.1225 0.815488 19.5536C1.07486 19.6927 1.36305 19.7623 1.63683 19.7623C2.19881 19.7623 2.74637 19.4841 3.04898 18.9834L4.23056 17.0364C7.51595 19.6093 11.565 21 15.8447 21C20.1676 21 24.3608 19.5119 27.6606 16.8695L28.9574 18.9974C29.26 19.498 29.8076 19.7762 30.3696 19.7762C30.6434 19.7762 30.9315 19.7066 31.1909 19.5675C31.969 19.1225 32.2284 18.1629 31.7817 17.4119Z" fill="white"/>
</svg>
