<svg width="28" height="28" viewBox="0 0 28 28" fill="none" xmlns="http://www.w3.org/2000/svg">
<path fill-rule="evenodd" clip-rule="evenodd" d="M9.67422 2.87869C11.2787 2.18472 13.0337 1.80028 14.8821 1.80028V1.80082C17.4748 1.79899 20.0097 2.56548 22.1665 4.00338C24.3232 5.44128 26.0048 7.48599 26.9987 9.87896C27.9925 12.2719 28.2539 14.9057 27.7499 17.4471C27.2458 19.9885 25.999 22.3235 24.167 24.1568C22.3349 25.9901 20 27.2393 17.4575 27.7465C14.9151 28.2537 12.2792 27.9961 9.88318 27.0062C7.4872 26.0164 5.43877 24.3387 3.99691 22.1855C2.55506 20.0322 1.78454 17.5 1.78281 14.9092C1.78433 13.1174 2.15821 11.3454 2.88077 9.70558L13.5494 20.3477C14.8701 17.2955 17.2977 14.8567 20.3437 13.5218L9.68351 2.87869C6.63268 4.2111 4.2014 6.65067 2.88055 9.70482L0 6.82651C1.31935 3.77439 3.7469 1.33517 6.79383 0L9.67422 2.87869ZM17.162 21.1166C17.9282 19.3451 19.336 17.9283 21.1034 17.1502L22.1353 22.148L17.162 21.1166Z" fill="white"/>
<path d="M21.1032 17.1597L20.3432 13.5215C17.2969 14.8575 14.8697 17.2964 13.5496 20.3479L17.1528 21.1168C17.9221 19.3474 19.3288 17.9317 21.0938 17.1504" fill="white"/>
</svg>
