<svg width="18" height="31" viewBox="0 0 18 31" fill="none" xmlns="http://www.w3.org/2000/svg">
<path d="M9.13033 0C4.70834 0 1.1237 3.59665 1.1237 8.03321C1.1237 12.4699 4.70834 16.0668 9.13033 16.0668C13.5523 16.0668 17.137 12.4699 17.137 8.03321C17.137 3.59665 13.5523 0 9.13033 0ZM9.13033 11.3542C7.30244 11.3542 5.82057 9.86728 5.82057 8.03332C5.82057 6.19936 7.30244 4.71257 9.13033 4.71257C10.9582 4.71257 12.4401 6.19936 12.4401 8.03332C12.4401 9.86728 10.9582 11.3542 9.13033 11.3542Z" fill="white"/>
<path d="M11.957 22.4588C15.1624 21.8036 17.0832 20.2806 17.1849 20.1989C18.1228 19.4442 18.2735 18.0695 17.5213 17.1283C16.7692 16.1872 15.3991 16.0361 14.4609 16.7907C14.4411 16.8068 12.3924 18.3836 9.0216 18.3859C5.65088 18.3836 3.55887 16.8068 3.53905 16.7907C2.60087 16.0361 1.23083 16.1872 0.478727 17.1283C-0.273492 18.0695 -0.122818 19.4442 0.815135 20.1989C0.918143 20.2818 2.91826 21.8444 6.21347 22.4842L1.62098 27.2997C0.786376 28.1681 0.811469 29.5508 1.67701 30.3882C2.09947 30.7969 2.64395 31 3.18798 31C3.75836 31 4.32816 30.7764 4.75532 30.3319L9.02171 25.7719L13.719 30.3614C14.5701 31.2139 15.9483 31.2126 16.7978 30.359C17.6473 29.5053 17.6463 28.1223 16.7954 27.27L11.957 22.4588Z" fill="white"/>
</svg>
