<svg width="26" height="20" viewBox="0 0 26 20" fill="none" xmlns="http://www.w3.org/2000/svg">
<path d="M9.41495 0H1.90735e-06V6.63383C1.90735e-06 9.30487 0.245705 11.4067 0.737114 12.9392C1.20619 14.4718 2.09966 15.8621 3.41753 17.11C4.71306 18.3361 6.35481 19.2994 8.34278 20L10.1856 16.1576C8.30928 15.5446 6.96907 14.6907 6.16495 13.5961C5.33849 12.5014 4.91409 11.0454 4.89175 9.22824H9.41495V0ZM25.2294 0H15.8144V6.63383C15.8144 9.30487 16.049 11.4067 16.518 12.9392C16.9871 14.4718 17.8806 15.8621 19.1985 17.11C20.494 18.3361 22.1469 19.2994 24.1572 20L26 16.1576C24.1014 15.5446 22.75 14.6907 21.9459 13.5961C21.1418 12.5014 20.7174 11.0454 20.6727 9.22824H25.2294V0Z" fill="#4F538C"/>
</svg>
