<svg width="26" height="20" viewBox="0 0 26 20" fill="none" xmlns="http://www.w3.org/2000/svg">
<path d="M16.5851 0H26V6.63383C26 9.30487 25.7543 11.4067 25.2629 12.9392C24.7938 14.4718 23.9003 15.8621 22.5825 17.11C21.2869 18.3361 19.6452 19.2994 17.6572 20L15.8144 16.1576C17.6907 15.5446 19.0309 14.6907 19.8351 13.5961C20.6615 12.5014 21.0859 11.0454 21.1082 9.22824H16.5851V0ZM0.770618 0H10.1856V6.63383C10.1856 9.30487 9.95103 11.4067 9.48196 12.9392C9.01289 14.4718 8.11942 15.8621 6.80155 17.11C5.50601 18.3361 3.85309 19.2994 1.84278 20L0 16.1576C1.89863 15.5446 3.25 14.6907 4.05412 13.5961C4.85825 12.5014 5.28265 11.0454 5.32732 9.22824H0.770618V0Z" fill="#4F538C"/>
</svg>
