<svg width="541" height="750" viewBox="0 0 541 750" fill="none" xmlns="http://www.w3.org/2000/svg">
<path opacity="0.15" d="M-12 13L0 1M15 13L27 1M42 13L54 1M69 13L81 1M96 13L108 1M123 13L135 1M150 13L162 1M177 13L189 1M204 13L216 1M231 13L243 1M258 13L270 1M285 13L297 1M-12 45L0 33M15 45L27 33M42 45L54 33M69 45L81 33M96 45L108 33M123 45L135 33M150 45L162 33M177 45L189 33M204 45L216 33M231 45L243 33M258 45L270 33M285 45L297 33M312 45L324 33M339 45L351 33M366 45L378 33M393 45L405 33M420 45L432 33M-12 77L0 65M15 77L27 65M42 77L54 65M69 77L81 65M96 77L108 65M123 77L135 65M150 77L162 65M177 77L189 65M204 77L216 65M231 77L243 65M258 77L270 65M285 77L297 65M312 77L324 65M339 77L351 65M366 77L378 65M393 77L405 65M420 77L432 65M447 77L459 65M474 77L486 65M501 77L513 65M528 77L540 65M-12 109L0 97M15 109L27 97M42 109L54 97M69 109L81 97M96 109L108 97M123 109L135 97M150 109L162 97M177 109L189 97M204 109L216 97M231 109L243 97M258 109L270 97M285 109L297 97M312 109L324 97M339 109L351 97M366 109L378 97M393 109L405 97M420 109L432 97M447 109L459 97M474 109L486 97M501 109L513 97M528 109L540 97M-12 141L0 129M15 141L27 129M42 141L54 129M69 141L81 129M96 141L108 129M123 141L135 129M150 141L162 129M177 141L189 129M204 141L216 129M231 141L243 129M258 141L270 129M285 141L297 129M312 141L324 129M339 141L351 129M366 141L378 129M393 141L405 129M420 141L432 129M447 141L459 129M474 141L486 129M501 141L513 129M528 141L540 129M-12 173L0 161M15 173L27 161M42 173L54 161M69 173L81 161M96 173L108 161M123 173L135 161M150 173L162 161M177 173L189 161M204 173L216 161M231 173L243 161M258 173L270 161M285 173L297 161M312 173L324 161M339 173L351 161M366 173L378 161M393 173L405 161M420 173L432 161M447 173L459 161M474 173L486 161M501 173L513 161M528 173L540 161M-12 205L0 193M15 205L27 193M42 205L54 193M69 205L81 193M96 205L108 193M123 205L135 193M150 205L162 193M177 205L189 193M204 205L216 193M231 205L243 193M258 205L270 193M285 205L297 193M312 205L324 193M339 205L351 193M366 205L378 193M393 205L405 193M420 205L432 193M-12 237L0 225M15 237L27 225M42 237L54 225M69 237L81 225M96 237L108 225M123 237L135 225M150 237L162 225M177 237L189 225M204 237L216 225M231 237L243 225M258 237L270 225M285 237L297 225M312 237L324 225M339 237L351 225M366 237L378 225M393 237L405 225M420 237L432 225M-12 269L0 257M15 269L27 257M42 269L54 257M69 269L81 257M96 269L108 257M123 269L135 257M150 269L162 257M177 269L189 257M204 269L216 257M231 269L243 257M258 269L270 257M285 269L297 257M312 269L324 257M339 269L351 257M366 269L378 257M393 269L405 257M-12 301L0 289M15 301L27 289M42 301L54 289M69 301L81 289M96 301L108 289M123 301L135 289M150 301L162 289M177 301L189 289M204 301L216 289M231 301L243 289M258 301L270 289M285 301L297 289M312 301L324 289M339 301L351 289M366 301L378 289M393 301L405 289M-12 333L0 321M15 333L27 321M42 333L54 321M69 333L81 321M96 333L108 321M123 333L135 321M150 333L162 321M177 333L189 321M204 333L216 321M231 333L243 321M258 333L270 321M285 333L297 321M312 333L324 321M339 333L351 321M366 333L378 321M393 333L405 321M420 333L432 321M447 333L459 321M-12 365L0 353M15 365L27 353M42 365L54 353M69 365L81 353M96 365L108 353M123 365L135 353M150 365L162 353M177 365L189 353M204 365L216 353M231 365L243 353M258 365L270 353M285 365L297 353M312 365L324 353M339 365L351 353M366 365L378 353M393 365L405 353M420 365L432 353M447 365L459 353M-12 397L0 385M15 397L27 385M42 397L54 385M69 397L81 385M96 397L108 385M123 397L135 385M150 397L162 385M177 397L189 385M204 397L216 385M231 397L243 385M258 397L270 385M285 397L297 385M312 397L324 385M339 397L351 385M366 397L378 385M393 397L405 385M420 397L432 385M447 397L459 385M-12 429L0 417M15 429L27 417M42 429L54 417M69 429L81 417M96 429L108 417M123 429L135 417M150 429L162 417M177 429L189 417M204 429L216 417M231 429L243 417M258 429L270 417M285 429L297 417M312 429L324 417M339 429L351 417M366 429L378 417M393 429L405 417M420 429L432 417M447 429L459 417M-12 461L0 449M15 461L27 449M42 461L54 449M69 461L81 449M96 461L108 449M123 461L135 449M150 461L162 449M177 461L189 449M204 461L216 449M231 461L243 449M258 461L270 449M285 461L297 449M312 461L324 449M339 461L351 449M366 461L378 449M393 461L405 449M420 461L432 449M447 461L459 449M474 461L486 449M501 461L513 449M528 461L540 449M-12 493L0 481M15 493L27 481M42 493L54 481M69 493L81 481M96 493L108 481M123 493L135 481M150 493L162 481M177 493L189 481M204 493L216 481M231 493L243 481M258 493L270 481M285 493L297 481M312 493L324 481M339 493L351 481M366 493L378 481M393 493L405 481M420 493L432 481M447 493L459 481M474 493L486 481M501 493L513 481M528 493L540 481M-12 525L0 513M15 525L27 513M42 525L54 513M69 525L81 513M96 525L108 513M123 525L135 513M150 525L162 513M-12 557L0 545M15 557L27 545M42 557L54 545M69 557L81 545M96 557L108 545M123 557L135 545M150 557L162 545M177 557L189 545M204 557L216 545M231 557L243 545M258 557L270 545M285 557L297 545M312 557L324 545M339 557L351 545M366 557L378 545M393 557L405 545M420 557L432 545M447 557L459 545M474 557L486 545M501 557L513 545M528 557L540 545M-12 589L0 577M15 589L27 577M42 589L54 577M69 589L81 577M96 589L108 577M123 589L135 577M150 589L162 577M177 589L189 577M204 589L216 577M231 589L243 577M258 589L270 577M285 589L297 577M-12 621L0 609M15 621L27 609M42 621L54 609M69 621L81 609M96 621L108 609M123 621L135 609M150 621L162 609M177 621L189 609M204 621L216 609M231 621L243 609M258 621L270 609M285 621L297 609M-12 653L0 641M15 653L27 641M42 653L54 641M69 653L81 641M96 653L108 641M123 653L135 641M150 653L162 641M177 653L189 641M204 653L216 641M231 653L243 641M258 653L270 641M285 653L297 641M-12 685L0 673M15 685L27 673M42 685L54 673M69 685L81 673M96 685L108 673M123 685L135 673M150 685L162 673M177 685L189 673M-12 717L0 705M15 717L27 705M42 717L54 705M69 717L81 705M96 717L108 705M123 717L135 705M150 717L162 705M-12 749L0 737M15 749L27 737M42 749L54 737M69 749L81 737M96 749L108 737M123 749L135 737" stroke="#868AA0" stroke-width="2"/>
</svg>
