<svg width="135" height="40" viewBox="0 0 135 40" fill="none" xmlns="http://www.w3.org/2000/svg">
<rect width="40" height="40" fill="#1F7AAB"/>
<path d="M21.1611 28C12.2779 28 7.21112 21.994 7 12H11.4497C11.5959 19.3353 14.8762 22.4424 17.4746 23.0831V12H21.6647V18.3263C24.2306 18.0541 26.9261 15.1712 27.8355 12H32.0254C31.3271 15.9079 28.404 18.7908 26.3253 19.976C28.404 20.9369 31.7333 23.4515 33 28H28.3877C27.3971 24.957 24.9289 22.6026 21.6647 22.2823V28H21.1611Z" fill="white"/>
<path d="M51.328 26V15.536H54.672C55.3973 15.536 56.0373 15.616 56.592 15.776C57.1573 15.936 57.6 16.208 57.92 16.592C58.2507 16.9653 58.416 17.472 58.416 18.112C58.416 18.6027 58.288 19.0667 58.032 19.504C57.776 19.9307 57.4187 20.224 56.96 20.384V20.448C57.536 20.576 58.0107 20.848 58.384 21.264C58.768 21.6693 58.96 22.224 58.96 22.928C58.96 23.6213 58.784 24.1973 58.432 24.656C58.0907 25.1147 57.616 25.456 57.008 25.68C56.4 25.8933 55.712 26 54.944 26H51.328ZM53.184 19.856H54.512C55.2373 19.856 55.7653 19.7227 56.096 19.456C56.4267 19.1893 56.592 18.832 56.592 18.384C56.592 17.872 56.4213 17.5093 56.08 17.296C55.7387 17.0827 55.2267 16.976 54.544 16.976H53.184V19.856ZM53.184 24.56H54.752C55.52 24.56 56.112 24.4213 56.528 24.144C56.944 23.856 57.152 23.4187 57.152 22.832C57.152 22.2773 56.9493 21.8773 56.544 21.632C56.1387 21.376 55.5413 21.248 54.752 21.248H53.184V24.56ZM60.8749 26V15.536H62.7309V19.792H64.2029L65.6269 17.264C65.9042 16.7627 66.1709 16.3733 66.4269 16.096C66.6829 15.8187 66.9495 15.6267 67.2269 15.52C67.5042 15.4027 67.8242 15.344 68.1869 15.344C68.3042 15.344 68.4269 15.3547 68.5549 15.376C68.6935 15.3867 68.8109 15.4187 68.9069 15.472L68.6029 17.152C68.5175 17.1307 68.4375 17.12 68.3629 17.12C68.2989 17.1093 68.2402 17.104 68.1869 17.104C67.9522 17.104 67.7495 17.1733 67.5789 17.312C67.4082 17.4507 67.1842 17.7547 66.9069 18.224L65.6589 20.448L69.1629 26H67.1949L64.2029 21.296H62.7309V26H60.8749ZM74.392 26.192C73.4853 26.192 72.6853 25.9733 71.992 25.536C71.2987 25.088 70.7547 24.4587 70.36 23.648C69.976 22.8267 69.784 21.8507 69.784 20.72C69.784 19.5893 69.976 18.624 70.36 17.824C70.7547 17.024 71.2987 16.4107 71.992 15.984C72.6853 15.5573 73.4853 15.344 74.392 15.344C75.3093 15.344 76.1147 15.5573 76.808 15.984C77.5013 16.4107 78.04 17.024 78.424 17.824C78.8187 18.624 79.016 19.5893 79.016 20.72C79.016 21.8507 78.8187 22.8267 78.424 23.648C78.04 24.4587 77.5013 25.088 76.808 25.536C76.1147 25.9733 75.3093 26.192 74.392 26.192ZM74.392 24.576C75.2133 24.576 75.8693 24.2293 76.36 23.536C76.8507 22.832 77.096 21.8933 77.096 20.72C77.096 19.5467 76.8507 18.6293 76.36 17.968C75.8693 17.296 75.2133 16.96 74.392 16.96C73.5707 16.96 72.9147 17.296 72.424 17.968C71.9333 18.6293 71.688 19.5467 71.688 20.72C71.688 21.8933 71.9333 22.832 72.424 23.536C72.9147 24.2293 73.5707 24.576 74.392 24.576ZM81.1093 26V15.536H82.9653V19.744H87.2053V15.536H89.0613V26H87.2053V21.36H82.9653V26H81.1093ZM93.8306 26V17.104H90.8066V15.536H98.7106V17.104H95.6866V26H93.8306ZM101.956 20.432L101.588 21.712H104.26L103.892 20.432C103.722 19.8773 103.556 19.3067 103.396 18.72C103.247 18.1333 103.098 17.552 102.948 16.976H102.884C102.746 17.5627 102.596 18.1493 102.436 18.736C102.287 19.312 102.127 19.8773 101.956 20.432ZM98.4524 26L101.86 15.536H104.036L107.444 26H105.492L104.676 23.168H101.156L100.34 26H98.4524ZM108.734 26V15.536H110.59V19.792H112.062L113.486 17.264C113.764 16.7627 114.03 16.3733 114.286 16.096C114.542 15.8187 114.809 15.6267 115.086 15.52C115.364 15.4027 115.684 15.344 116.046 15.344C116.164 15.344 116.286 15.3547 116.414 15.376C116.553 15.3867 116.67 15.4187 116.766 15.472L116.462 17.152C116.377 17.1307 116.297 17.12 116.222 17.12C116.158 17.1093 116.1 17.104 116.046 17.104C115.812 17.104 115.609 17.1733 115.438 17.312C115.268 17.4507 115.044 17.7547 114.766 18.224L113.518 20.448L117.022 26H115.054L112.062 21.296H110.59V26H108.734ZM120.456 26V17.104H117.432V15.536H125.336V17.104H122.312V26H120.456ZM127.078 26V15.536H133.382V17.104H128.934V19.776H132.694V21.344H128.934V24.432H133.542V26H127.078Z" fill="#A7BEE8"/>
</svg>
