<svg width="38" height="38" viewBox="0 0 38 38" fill="none" xmlns="http://www.w3.org/2000/svg">
<g clip-path="url(#clip0_2052_102293)">
<path d="M17.4166 11.0837H20.5833V14.2503H17.4166V11.0837ZM17.4166 17.417H20.5833V26.917H17.4166V17.417ZM19 3.16699C10.26 3.16699 3.16663 10.2603 3.16663 19.0003C3.16663 27.7403 10.26 34.8337 19 34.8337C27.74 34.8337 34.8333 27.7403 34.8333 19.0003C34.8333 10.2603 27.74 3.16699 19 3.16699ZM19 31.667C12.0175 31.667 6.33329 25.9828 6.33329 19.0003C6.33329 12.0178 12.0175 6.33366 19 6.33366C25.9825 6.33366 31.6666 12.0178 31.6666 19.0003C31.6666 25.9828 25.9825 31.667 19 31.667Z" fill="white"/>
</g>
<defs>
<clipPath id="clip0_2052_102293">
<rect width="38" height="38" fill="white"/>
</clipPath>
</defs>
</svg>
