<svg width="30" height="34" viewBox="0 0 30 34" fill="none" xmlns="http://www.w3.org/2000/svg">
<path d="M20.4444 1H5.66667V16M20.4444 1L29 9.8M20.4444 1V9.8H29M29 9.8V33H5.66667V28M5.66667 16H1V28H5.66667M5.66667 16H15V28H5.66667" stroke="white" stroke-width="2"/>
<path d="M4 25V22.5M4 22.5V19H5.25C6.2165 19 7 19.7835 7 20.75V21C7 21.8284 6.32843 22.5 5.5 22.5V22.5M4 22.5H5.5M5.5 22.5V22.5C6.39579 22.7986 7 23.6369 7 24.5811V25M9 19V23.5C9 24.3284 9.67157 25 10.5 25V25C11.3284 25 12 24.3284 12 23.5V19" stroke="white" stroke-linecap="square"/>
</svg>
