<svg width="30" height="34" viewBox="0 0 30 34" fill="none" xmlns="http://www.w3.org/2000/svg">
<path d="M20.4444 1H5.66667V16M20.4444 1L29 9.8M20.4444 1V9.8H29M29 9.8V33H5.66667V28M5.66667 16H1L1 28H5.66667M5.66667 16H20V28H5.66667" stroke="white" stroke-width="2"/>
<path d="M4 25V22M4 19V22M4 22H5.5M7 19V19C7 19.9604 6.61847 20.8815 5.93934 21.5607L5.5 22M5.5 22L5.93934 22.4393C6.61847 23.1185 7 24.0396 7 25V25M14.5 19H17L14.5 25H17M9 25V23M12.5 25V23M9 23V20.75C9 19.7835 9.7835 19 10.75 19V19C11.7165 19 12.5 19.7835 12.5 20.75V23M9 23H12.5" stroke="white" stroke-linecap="square"/>
</svg>
